<svg width="482" height="332" viewBox="0 0 482 332" fill="none" xmlns="http://www.w3.org/2000/svg">
<path d="M48.6741 311.134C37.7899 305.001 28.508 296.384 21.5843 285.983C14.6606 275.583 10.291 263.694 8.83153 251.284C3.23918 204.843 6.38056 105.975 129.654 88.5263C215.956 76.3088 272.736 35.5417 308.822 33.1362C333.251 31.5076 389.813 35.4957 412.252 80.3832C434.69 125.271 451.714 143.335 464.372 153.694C477.03 164.052 485.976 205.821 478.215 227.004C469.193 251.618 453.371 272.519 380.878 293.812C308.385 315.105 180.083 341.002 103.562 328.916C79.6334 325.135 61.838 318.489 48.6741 311.134Z" fill="#F8F8FF"/>
<path d="M9.37811 258.426C9.37811 258.426 172.649 224.858 210.616 235.078C248.583 245.299 334.741 244.355 353.198 241.276C385.078 235.959 434.195 250.985 445.178 246.041C450.592 243.601 469.78 245.299 469.78 245.299C469.78 245.299 431.059 290.653 326.042 309.131C226.335 326.678 153.79 339.298 87.3488 323.962C20.908 308.625 9.37811 258.426 9.37811 258.426Z" fill="#F5F5FC"/>
<path d="M25.6489 255.98C25.6489 255.98 72.9019 145.914 108.337 136.884C143.773 127.855 130.776 138.887 167.402 124.874C204.029 110.861 209.195 89.43 216.059 120.661C222.923 151.893 217.164 244.022 217.164 244.022C217.164 244.022 51.6372 246.968 25.6489 255.98Z" fill="#E9EDFA"/>
<path d="M206.75 245.967C206.75 245.967 231.381 89.5968 275.095 90.719C318.81 91.8412 341.835 98.8506 367.841 101.849C393.846 104.847 405.549 132.177 416.71 141.033C427.872 149.89 446.519 163.477 451.703 180.69C456.887 197.902 492.783 248.148 452.762 252.153C412.741 256.158 210.214 245.644 210.214 245.644" fill="#E9EDFA"/>
<path d="M92.8031 79.353L49.5947 251.773L53.2136 251.526L92.8031 79.353Z" fill="#BAC6F2"/>
<path d="M90.9044 50.6997C90.9044 50.6997 89.6272 73.3909 92.8203 79.3472C92.8031 79.3472 98.4932 66.0536 90.9044 50.6997Z" fill="#BAC6F2"/>
<path d="M76.9178 57.807C76.9178 57.807 84.0463 76.4008 89.0921 79.7559C89.0921 79.7329 89.3683 66.7155 76.9178 57.807Z" fill="#BAC6F2"/>
<path d="M105.789 44.2313C105.789 44.2313 91.5718 69.3741 93.6028 78.3286C93.6028 78.3286 110.012 66.9283 105.789 44.2313Z" fill="#BAC6F2"/>
<path d="M70.2898 66.4507C70.2898 66.4507 77.7175 90.3677 80.1628 97.0663C80.7381 98.6431 81.2559 99.3682 81.7104 99.443C83.0798 99.7365 83.8795 94.5572 83.868 91.0122C83.8507 86.2875 80.5482 71.8372 70.2898 66.4507Z" fill="#BAC6F2"/>
<path d="M81.9636 99.0402C81.9636 99.0402 81.9003 98.9136 81.9233 99.1151C82.1938 101.273 83.868 114.342 83.6033 116.592C83.3157 119.056 84.6217 113.399 84.6217 113.399L81.9636 99.0402Z" fill="#BAC6F2"/>
<path d="M89.0748 79.5256C89.0748 79.5256 88.8677 79.4163 88.8907 79.5256C89.5581 81.5916 89.6214 90.2699 89.3567 92.5258C89.0691 94.9888 90.0817 90.5519 90.0817 90.5519L89.0748 79.5256Z" fill="#BAC6F2"/>
<path d="M66.2049 76.2799C66.2049 76.2799 70.0597 107.834 73.8857 114.889C78.7589 123.866 79.6392 106.924 78.966 103.811C78.2929 100.698 75.7901 82.7195 66.2049 76.2799Z" fill="#BAC6F2"/>
<path d="M89.0748 79.5256C89.0748 79.5256 88.8677 79.4163 88.8907 79.5256C89.5581 81.5916 89.6214 90.2699 89.3567 92.5258C89.0691 94.9888 90.0817 90.5519 90.0817 90.5519L89.0748 79.5256Z" fill="#BAC6F2"/>
<path d="M76.7279 116.345C76.7279 116.345 76.6646 116.207 76.6934 116.425C76.9811 118.831 78.7589 133.402 78.5057 135.911C78.2353 138.651 79.5011 132.366 79.5011 132.366L76.7279 116.345Z" fill="#BAC6F2"/>
<path d="M50.9755 89.516C50.9755 89.516 62.0164 125.196 67.4131 132.677C74.2769 142.178 73.0745 121.743 71.6879 118.29C70.3013 114.837 61.9128 95.2708 50.9755 89.516Z" fill="#BAC6F2"/>
<path d="M70.9112 134.766C70.9112 134.766 70.7098 134.191 70.7386 134.409C71.0608 137.091 74.0008 151.599 73.7189 154.396C73.4139 157.452 74.8696 150.943 74.8696 150.943L70.9112 134.766Z" fill="#BAC6F2"/>
<path d="M43.0358 106.781C43.0358 106.781 56.844 143.721 62.2695 151.668C69.1737 161.814 66.8723 139.007 64.7033 132.798C62.4537 126.479 53.9961 112.955 43.0358 106.781Z" fill="#BAC6F2"/>
<path d="M65.7734 153.935C65.7734 153.935 65.572 153.291 65.6008 153.556C65.9345 156.433 68.9378 171.873 68.6674 174.848C68.3739 178.106 69.8181 171.206 69.8181 171.206L65.7734 153.935Z" fill="#BAC6F2"/>
<path d="M38.1741 125.535C38.1741 125.535 51.9824 162.476 57.4079 170.423C64.312 180.569 62.0106 157.762 59.8416 151.553C57.592 145.24 49.1344 131.722 38.1741 125.535Z" fill="#BAC6F2"/>
<path d="M60.9117 172.702C60.9117 172.702 60.7104 172.057 60.7391 172.322C61.0728 175.199 64.1106 191.157 63.846 194.138C63.5525 197.396 65.198 189.851 65.198 189.851L60.9117 172.702Z" fill="#BAC6F2"/>
<path d="M28.6119 142.236C28.6119 142.236 45.9643 180.321 51.3955 188.275C58.2997 198.42 54.7671 172.587 52.5462 166.406C50.3254 160.093 39.5722 148.423 28.6119 142.236Z" fill="#BAC6F2"/>
<path d="M54.2089 190.41C54.2089 190.41 54.0709 190.064 54.1054 190.41C54.4794 193.862 58.3917 212.853 58.1673 216.433C57.9199 220.346 59.8473 211.369 59.8473 211.369L54.2089 190.41Z" fill="#BAC6F2"/>
<path d="M16.242 163.178C16.242 163.178 23.1461 176.88 31.4541 188.234C37.0349 195.859 44.1577 201.672 46.8733 204.434C55.5035 213.187 46.7755 189.368 43.5133 183.676C40.1706 177.853 28.1343 167.315 16.242 163.178Z" fill="#BAC6F2"/>
<path d="M50.0895 205.85C50.0895 205.85 49.9514 205.504 49.9859 205.85C50.3599 209.302 54.5484 229.824 54.1629 233.392C54.0709 234.238 55.889 226.958 55.889 226.958L50.0895 205.85Z" fill="#BAC6F2"/>
<path d="M11.2825 183.072C11.2825 183.072 19.0266 198.489 28.2954 211.311C34.5149 219.943 42.4029 226.509 45.4177 229.64C54.9741 239.55 45.1127 212.784 41.4593 206.368C37.7196 199.796 24.3773 187.849 11.2825 183.072Z" fill="#BAC6F2"/>
<path d="M0 216.122C0 216.122 15.5343 224.892 26.719 233.386C39.8311 243.354 42.0922 244.436 45.8319 245.518C57.684 248.942 38.2144 223.868 32.6911 220.404C27.0412 216.853 12.9107 213.584 0 216.122Z" fill="#BAC6F2"/>
<path d="M49.2207 231.919C49.1476 231.675 49.0572 231.436 48.9503 231.205C49.215 232.995 52.2873 241.035 51.7867 242.911C51.6717 243.354 52.736 239.642 52.736 239.642L49.2207 231.919Z" fill="#BAC6F2"/>
<path d="M48.0816 244.511C48.0816 244.511 47.8169 244.085 47.8399 244.165C48.0413 245.046 50.8321 248.931 50.2682 249.881C50.1359 250.105 51.327 248.223 51.327 248.223L48.0816 244.511Z" fill="#BAC6F2"/>
<path d="M103.723 58.8545C103.723 58.8545 95.9329 79.9114 91.7559 84.6764C91.7559 84.6764 93.3324 71.2791 103.723 58.8545Z" fill="#BAC6F2"/>
<path d="M109.477 68.3787C109.477 68.3787 98.1538 83.8706 93.8444 85.8503C93.8444 85.8503 98.591 73.8515 109.477 68.3787Z" fill="#BAC6F2"/>
<path d="M97.1584 49.7217C97.1584 49.7217 96.2609 75.8025 91.6524 83.5715C91.6524 83.5715 86.0485 69.5931 97.1584 49.7217Z" fill="#BAC6F2"/>
<path d="M110.213 77.7246C110.213 77.7246 96.7039 98.0218 92.6995 103.621C91.7559 104.939 91.1806 105.474 90.8642 105.463C89.9263 105.463 91.3935 100.525 92.7398 97.2795C94.5406 92.9691 101.997 80.4409 110.213 77.7246Z" fill="#BAC6F2"/>
<path d="M90.8699 105.054C90.8699 105.054 90.9562 104.951 90.8699 105.129C89.8918 107.045 83.9658 118.653 83.2639 120.771C82.5102 123.073 83.8392 117.628 83.8392 117.628L90.8699 105.054Z" fill="#BAC6F2"/>
<path d="M93.9365 85.6434C93.9365 85.6434 94.1033 85.5916 94.0573 85.6434C92.8721 87.3698 89.5581 95.323 88.8792 97.4465C88.1255 99.7484 89.1842 95.4841 89.1842 95.4841L93.9365 85.6434Z" fill="#BAC6F2"/>
<path d="M108.976 87.5999C108.976 87.5999 94.7478 115.66 89.7538 121.294C83.425 128.465 89.2762 112.754 90.8642 110.055C92.4521 107.356 100.754 91.4326 108.976 87.5999Z" fill="#BAC6F2"/>
<path d="M93.9365 85.6434C93.9365 85.6434 94.1033 85.5916 94.0573 85.6434C92.8721 87.3698 89.5581 95.323 88.8792 97.4465C88.1255 99.7484 89.1842 95.4841 89.1842 95.4841L93.9365 85.6434Z" fill="#BAC6F2"/>
<path d="M87.5042 122.019C87.5042 122.019 87.5962 121.904 87.5042 122.106C86.4225 124.246 79.8521 137.206 79.0581 139.554C78.1893 142.121 79.7946 136.101 79.7946 136.101L87.5042 122.019Z" fill="#BAC6F2"/>
<path d="M113.182 102.988C113.182 102.988 93.0447 133.299 86.969 138.973C79.2364 146.195 87.671 127.751 89.8458 124.874C92.0206 121.996 104.408 105.912 113.182 102.988Z" fill="#BAC6F2"/>
<path d="M84.0636 140.159C84.0636 140.159 84.4146 139.652 84.2995 139.871C83.0913 142.259 75.8477 154.908 74.9559 157.532C73.9893 160.41 75.5312 154.149 75.5312 154.149L84.0636 140.159Z" fill="#BAC6F2"/>
<path d="M111.461 120.517C111.461 120.517 89.1784 151.369 82.9014 157.498C74.8984 165.301 84.8921 144.883 88.5513 139.692C92.3025 134.404 102.509 123.821 111.461 120.517Z" fill="#BAC6F2"/>
<path d="M79.9326 158.804C79.9326 158.804 80.2951 158.257 80.18 158.493C78.897 161.037 71.2507 174.549 70.2898 177.335C69.237 180.379 70.9745 173.755 70.9745 173.755L79.9326 158.804Z" fill="#BAC6F2"/>
<path d="M107.319 138.743C107.319 138.743 85.0417 169.594 78.7589 175.723C70.7559 183.527 80.7496 163.109 84.4088 157.918C88.1601 152.606 98.3839 142.046 107.319 138.743Z" fill="#BAC6F2"/>
<path d="M75.7901 177.03C75.7901 177.03 76.1526 176.483 76.0375 176.719C74.7545 179.263 66.8953 193.241 65.9287 196.026C64.8759 199.071 66.7284 191.808 66.7284 191.808L75.7901 177.03Z" fill="#BAC6F2"/>
<path d="M106.79 156.099C106.79 156.099 81.9405 187.233 75.652 193.368C67.649 201.171 79.5356 178.273 83.1948 173.082C86.9403 167.782 97.8085 159.403 106.79 156.099Z" fill="#BAC6F2"/>
<path d="M73.1551 194.691C73.1551 194.691 73.368 194.404 73.2299 194.691C71.7052 197.764 62.1717 214.315 60.9578 217.642C59.6287 221.302 61.8495 212.669 61.8495 212.669L73.1551 194.691Z" fill="#BAC6F2"/>
<path d="M106.358 177.95C106.358 177.95 97.0204 189.005 87.717 197.615C81.4688 203.369 74.9789 207.179 72.2921 209.124C63.7942 215.282 78.0455 195.353 82.1534 190.841C86.3707 186.197 97.6187 179.165 106.358 177.95Z" fill="#BAC6F2"/>
<path d="M69.8181 209.723C69.8181 209.723 70.0309 209.435 69.8929 209.723C68.3682 212.796 58.0926 230.693 56.9764 234.043C56.7117 234.837 58.363 227.781 58.363 227.781L69.8181 209.723Z" fill="#BAC6F2"/>
<path d="M101.836 197.229C101.836 197.229 91.3417 209.677 80.9049 219.42C73.8972 225.963 66.6479 230.296 63.6446 232.512C54.1342 239.527 70.192 217.141 74.8178 212.053C79.5759 206.845 92.1414 198.777 101.836 197.229Z" fill="#BAC6F2"/>
<path d="M96.1918 229.934C96.1918 229.934 83.4998 234.612 73.5405 239.982C61.8611 246.283 60.089 246.784 57.4309 246.968C48.9848 247.543 70.1978 228.788 74.8466 226.826C79.5874 224.754 89.3568 224.818 96.1918 229.934Z" fill="#BAC6F2"/>
<path d="M60.509 233.778C60.509 233.778 61.021 233.036 60.9405 233.202C60.1062 234.785 55.2158 241.484 54.8073 243.308C54.7095 243.739 55.469 240.108 55.469 240.108L60.509 233.778Z" fill="#BAC6F2"/>
<path d="M56.4475 245.552C56.4475 245.552 56.7698 245.218 56.7238 245.287C56.2692 246.047 53.1216 249.006 53.0985 249.996C53.0985 250.232 53.0985 248.269 53.0985 248.269L56.4475 245.552Z" fill="#BAC6F2"/>
<path d="M193.287 44.1971L129.326 246.042L134.642 245.973L193.287 44.1971Z" fill="#BAC6F2"/>
<path d="M190.439 10.3185C190.439 10.3185 188.529 37.1532 193.316 44.1971C193.287 44.1971 201.796 28.4749 190.439 10.3185Z" fill="#BAC6F2"/>
<path d="M169.531 18.7321C169.531 18.7321 180.186 40.7212 187.735 44.6863C187.735 44.6748 188.138 29.2576 169.531 18.7321Z" fill="#BAC6F2"/>
<path d="M212.705 2.67029C212.705 2.67029 191.452 32.3939 194.466 42.9943C194.466 42.9943 219.022 29.5107 212.705 2.67029Z" fill="#BAC6F2"/>
<path d="M159.624 28.9469C159.624 28.9469 170.733 57.2261 174.387 65.1504C175.244 67.015 176.021 67.8494 176.688 67.9645C178.736 68.3098 179.933 62.2097 179.916 57.9972C179.899 52.3978 174.945 35.3117 159.624 28.9469Z" fill="#BAC6F2"/>
<path d="M177.079 67.481C177.079 67.481 176.987 67.3314 177.022 67.5673C177.43 70.1167 179.927 85.5684 179.53 88.2329C179.099 91.1448 181.055 84.4577 181.055 84.4577L177.079 67.481Z" fill="#BAC6F2"/>
<path d="M187.712 44.4043C187.712 44.4043 187.401 44.2777 187.436 44.3697C188.437 46.8155 188.535 57.0764 188.138 59.7409C187.706 62.6528 189.219 57.4102 189.219 57.4102L187.712 44.4043Z" fill="#BAC6F2"/>
<path d="M153.508 40.5602C153.508 40.5602 159.261 77.8744 165.015 86.2131C172.298 96.8308 173.645 76.7925 172.615 73.1152C171.585 69.4378 167.851 48.1853 153.508 40.5602Z" fill="#BAC6F2"/>
<path d="M187.712 44.4043C187.712 44.4043 187.401 44.2777 187.436 44.3697C188.437 46.8155 188.535 57.0764 188.138 59.7409C187.706 62.6528 189.219 57.4102 189.219 57.4102L187.712 44.4043Z" fill="#BAC6F2"/>
<path d="M169.243 87.9451C169.243 87.9451 169.145 87.7782 169.186 88.0429C169.617 90.8858 172.27 108.116 171.901 111.062C171.499 114.302 173.386 106.867 173.386 106.867L169.243 87.9451Z" fill="#BAC6F2"/>
<path d="M130.741 56.2015C130.741 56.2015 147.254 98.4189 155.32 107.247C165.584 118.48 163.789 94.3272 161.712 90.2298C159.635 86.1323 147.093 63.044 130.741 56.2015Z" fill="#BAC6F2"/>
<path d="M160.521 109.727C160.521 109.727 160.222 109.014 160.268 109.307C160.751 112.478 165.141 129.633 164.721 132.942C164.261 136.556 166.447 128.914 166.447 128.914L160.521 109.727Z" fill="#BAC6F2"/>
<path d="M118.866 76.6255C118.866 76.6255 139.509 120.305 147.633 129.737C157.99 141.735 154.537 114.734 151.27 107.419C147.898 99.9325 135.258 83.9399 118.866 76.6255Z" fill="#BAC6F2"/>
<path d="M152.863 132.395C152.863 132.395 152.558 131.636 152.604 131.947C153.105 135.325 157.593 153.608 157.207 157.135C156.77 160.985 158.933 152.825 158.933 152.825L152.863 132.395Z" fill="#BAC6F2"/>
<path d="M111.617 98.8102C111.617 98.8102 132.26 142.489 140.384 151.921C150.74 163.92 147.288 136.919 144.02 129.604C140.631 122.117 127.985 106.125 111.617 98.8102Z" fill="#BAC6F2"/>
<path d="M145.597 154.58C145.597 154.58 145.292 153.821 145.338 154.131C145.838 157.509 150.384 176.408 149.981 179.93C149.544 183.78 152.006 174.86 152.006 174.86L145.597 154.58Z" fill="#BAC6F2"/>
<path d="M97.2965 118.561C97.2965 118.561 123.244 163.598 131.363 173.03C141.719 185.029 136.408 154.477 133.123 147.162C129.769 139.675 113.688 125.875 97.2965 118.561Z" fill="#BAC6F2"/>
<path d="M135.574 175.528C135.574 175.528 135.367 175.119 135.419 175.493C135.994 179.562 141.828 202.029 141.494 206.264C141.126 210.868 144.009 200.279 144.009 200.279L135.574 175.528Z" fill="#BAC6F2"/>
<path d="M78.8222 143.33C78.8222 143.33 89.1208 159.529 101.548 172.961C109.897 181.979 120.535 188.85 124.608 192.113C137.479 202.472 124.459 174.273 119.58 167.569C114.58 160.675 96.5773 148.215 78.8222 143.33Z" fill="#BAC6F2"/>
<path d="M129.412 193.782C129.412 193.782 129.205 193.374 129.257 193.748C129.832 197.816 136.08 222.102 135.505 226.32C135.373 227.315 138.083 218.712 138.083 218.712L129.412 193.782Z" fill="#BAC6F2"/>
<path d="M71.383 166.844C71.383 166.844 82.9646 185.081 96.8247 200.222C106.128 210.402 117.923 218.194 122.433 221.894C136.719 233.611 121.973 201.96 116.513 194.375C110.915 186.629 90.9619 172.495 71.383 166.844Z" fill="#BAC6F2"/>
<path d="M54.5196 205.93C54.5196 205.93 77.7578 216.289 94.4715 226.349C114.074 238.134 117.485 239.412 123.055 240.689C140.775 244.718 111.663 215.092 103.401 210.995C94.9318 206.794 73.8167 202.926 54.5196 205.93Z" fill="#BAC6F2"/>
<path d="M128.112 224.61C128.112 224.61 127.675 223.569 127.709 223.764C128.1 225.876 132.697 235.389 131.955 237.605C131.777 238.128 133.376 233.738 133.376 233.738L128.112 224.61Z" fill="#BAC6F2"/>
<path d="M126.409 239.498C126.409 239.498 126.018 238.992 126.046 239.09C126.346 240.131 130.518 244.725 129.683 245.847C129.488 246.112 131.266 243.89 131.266 243.89L126.409 239.498Z" fill="#BAC6F2"/>
<path d="M209.615 19.9635C209.615 19.9635 197.964 44.8588 191.722 50.4986C191.716 50.4986 194.081 34.6498 209.615 19.9635Z" fill="#BAC6F2"/>
<path d="M218.217 31.2198C218.217 31.2198 201.29 49.5374 194.84 51.8796C194.84 51.8854 201.946 37.7228 218.217 31.2198Z" fill="#BAC6F2"/>
<path d="M199.806 9.16174C199.806 9.16174 198.459 40.0248 191.59 49.1922C191.59 49.1922 183.184 32.6644 199.806 9.16174Z" fill="#BAC6F2"/>
<path d="M219.327 42.269C219.327 42.269 199.121 66.2724 193.137 72.9077C191.728 74.4673 190.836 75.1003 190.393 75.0888C188.989 75.0542 191.187 69.2476 193.201 65.4092C195.887 60.2931 207.032 45.486 219.327 42.269Z" fill="#BAC6F2"/>
<path d="M190.393 74.5825C190.393 74.5825 190.52 74.4616 190.393 74.6746C188.932 76.942 180.037 90.6615 179.018 93.1706C177.868 95.9099 179.899 89.453 179.899 89.453L190.393 74.5825Z" fill="#BAC6F2"/>
<path d="M194.984 51.6379C194.984 51.6379 195.232 51.5746 195.168 51.6379C193.396 53.7039 188.442 63.0842 187.413 65.5933C186.262 68.3326 187.873 63.2914 187.873 63.2914L194.984 51.6379Z" fill="#BAC6F2"/>
<path d="M217.48 53.9514C217.48 53.9514 196.192 87.1337 188.759 93.7978C179.295 102.275 188.046 83.6981 190.422 80.5099C192.798 77.3217 205.179 58.4862 217.48 53.9514Z" fill="#BAC6F2"/>
<path d="M194.984 51.6379C194.984 51.6379 195.232 51.5746 195.168 51.6379C193.396 53.7039 188.442 63.0842 187.413 65.5933C186.262 68.3326 187.873 63.2914 187.873 63.2914L194.984 51.6379Z" fill="#BAC6F2"/>
<path d="M185.364 94.6553C185.364 94.6553 185.503 94.5229 185.364 94.7531C183.748 97.2853 173.921 112.593 172.707 115.39C171.407 118.428 173.811 111.298 173.811 111.298L185.364 94.6553Z" fill="#BAC6F2"/>
<path d="M223.763 72.1539C223.763 72.1539 193.644 107.995 184.559 114.705C173 123.245 185.612 101.434 188.816 98.0161C192.021 94.5977 210.639 75.6068 223.763 72.1539Z" fill="#BAC6F2"/>
<path d="M180.221 116.086C180.221 116.086 180.744 115.511 180.578 115.747C178.771 118.566 167.92 133.529 166.608 136.631C165.158 140.02 167.5 132.602 167.5 132.602L180.221 116.086Z" fill="#BAC6F2"/>
<path d="M221.191 92.8772C221.191 92.8772 187.879 129.357 178.478 136.614C166.51 145.822 181.458 121.697 186.929 115.557C192.533 109.267 207.803 96.779 221.191 92.8772Z" fill="#BAC6F2"/>
<path d="M174.042 138.15C174.042 138.15 174.588 137.506 174.41 137.782C172.494 140.792 161.062 156.773 159.618 160.065C158.047 163.661 160.648 155.829 160.648 155.829L174.042 138.15Z" fill="#BAC6F2"/>
<path d="M214.995 114.429C214.995 114.429 181.682 150.908 172.281 158.165C160.314 167.373 175.261 143.249 180.733 137.108C186.343 130.824 201.606 118.336 214.995 114.429Z" fill="#BAC6F2"/>
<path d="M167.851 159.725C167.851 159.725 168.398 159.08 168.219 159.357C166.303 162.366 154.543 178.894 153.105 182.186C151.534 185.783 154.302 177.197 154.302 177.197L167.851 159.725Z" fill="#BAC6F2"/>
<path d="M214.206 134.979C214.206 134.979 177.045 171.81 167.644 179.044C155.677 188.252 173.449 161.204 178.921 155.058C184.519 148.751 200.795 138.858 214.206 134.979Z" fill="#BAC6F2"/>
<path d="M163.904 180.592C163.904 180.592 164.226 180.253 164.013 180.592C161.712 184.223 147.478 203.795 145.666 207.732C143.681 212.031 147.006 201.822 147.006 201.822L163.904 180.592Z" fill="#BAC6F2"/>
<path d="M213.556 160.79C213.556 160.79 199.593 173.865 185.681 184.045C176.337 190.882 166.631 195.353 162.615 197.655C149.906 204.941 171.205 181.369 177.367 176.034C183.673 170.573 200.49 162.234 213.556 160.79Z" fill="#BAC6F2"/>
<path d="M158.916 198.363C158.916 198.363 159.238 198.024 159.025 198.363C156.724 201.994 141.379 223.161 139.711 227.137C139.314 228.075 141.782 219.731 141.782 219.731L158.916 198.363Z" fill="#BAC6F2"/>
<path d="M206.813 183.584C206.813 183.584 191.118 198.305 175.515 209.826C165.043 217.561 154.192 222.688 149.71 225.33C135.494 233.623 159.491 207.156 166.395 201.16C173.507 194.962 192.297 185.42 206.813 183.584Z" fill="#BAC6F2"/>
<path d="M198.35 222.251C198.35 222.251 179.364 227.787 164.479 234.134C147.018 241.587 144.342 242.191 140.372 242.393C127.715 243.077 159.468 220.893 166.413 218.55C173.53 216.151 188.138 216.214 198.35 222.251Z" fill="#BAC6F2"/>
<path d="M144.987 226.809C145.191 226.562 145.408 226.326 145.637 226.101C144.388 227.971 137.076 235.884 136.466 238.054C136.322 238.566 137.45 234.273 137.45 234.273L144.987 226.809Z" fill="#BAC6F2"/>
<path d="M138.918 240.73C138.918 240.73 139.395 240.333 139.332 240.419C138.653 241.317 133.94 244.816 133.911 245.991C133.911 246.267 133.911 243.93 133.911 243.93L138.918 240.73Z" fill="#BAC6F2"/>
<path d="M298.586 42.9424L331.652 251.451L327.377 250.749L298.586 42.9424Z" fill="#BAC6F2"/>
<path d="M303.903 9.33435C303.903 9.33435 303.011 36.2726 298.586 42.9425C298.604 42.9425 293.23 26.5988 303.903 9.33435Z" fill="#BAC6F2"/>
<path d="M319.753 19.3074C319.753 19.3074 309.311 40.4506 302.959 43.8286C302.953 43.8459 304.006 28.423 319.753 19.3074Z" fill="#BAC6F2"/>
<path d="M286.872 0C286.872 0 301.101 31.2947 297.741 41.6476C297.741 41.6476 279.445 26.3168 286.872 0Z" fill="#BAC6F2"/>
<path d="M326.709 30.2819C326.709 30.2819 315.341 57.669 311.75 65.3057C310.899 67.1012 310.208 67.8723 309.656 67.9356C307.999 68.1255 307.596 61.9218 307.988 57.7323C308.488 52.1559 313.96 35.4727 326.709 30.2819Z" fill="#BAC6F2"/>
<path d="M309.374 67.4292C309.374 67.4292 309.46 67.291 309.409 67.5212C308.833 70.0361 305.485 85.2748 305.56 87.9681C305.64 90.9088 304.685 84.0836 304.685 84.0836L309.374 67.4292Z" fill="#BAC6F2"/>
<path d="M302.999 43.5756C302.999 43.5756 303.258 43.472 303.218 43.5756C302.205 45.9408 301.204 56.1786 301.285 58.8719C301.365 61.8126 300.635 56.4606 300.635 56.4606L302.999 43.5756Z" fill="#BAC6F2"/>
<path d="M330.53 42.3265C330.53 42.3265 322.601 79.1574 317.297 87.0357C310.554 97.0779 311.29 76.9705 312.429 73.3795C313.568 69.7885 318.447 48.864 330.53 42.3265Z" fill="#BAC6F2"/>
<path d="M302.999 43.5756C302.999 43.5756 303.258 43.472 303.218 43.5756C302.205 45.9408 301.204 56.1786 301.285 58.8719C301.365 61.8126 300.635 56.4606 300.635 56.4606L302.999 43.5756Z" fill="#BAC6F2"/>
<path d="M313.77 88.4574C313.77 88.4574 313.862 88.302 313.804 88.5609C313.229 91.3693 309.553 108.369 309.581 111.356C309.61 114.625 308.776 107.057 308.776 107.057L313.77 88.4574Z" fill="#BAC6F2"/>
<path d="M347.22 59.7004C347.22 59.7004 330.305 100.594 323.102 108.795C313.937 119.228 317.533 95.2479 319.552 91.3174C321.571 87.3869 333.613 65.2596 347.22 59.7004Z" fill="#BAC6F2"/>
<path d="M318.741 110.872C318.741 110.872 319.046 110.182 318.982 110.475C318.315 113.606 313.287 130.398 313.321 133.736C313.361 137.379 312.314 129.558 312.314 129.558L318.741 110.872Z" fill="#BAC6F2"/>
<path d="M354.832 80.9933C354.832 80.9933 334.505 123.032 327.216 131.831C317.93 143.024 323.062 116.322 326.33 109.272C329.672 102.05 341.145 87.0474 354.832 80.9933Z" fill="#BAC6F2"/>
<path d="M322.803 134.093C322.803 134.093 323.113 133.357 323.05 133.667C322.348 137.005 317.141 154.92 317.141 158.465C317.141 162.338 316.175 154.034 316.175 154.034L322.803 134.093Z" fill="#BAC6F2"/>
<path d="M358.618 103.702C358.618 103.702 338.302 145.741 330.996 154.546C321.71 165.739 326.842 139.036 330.11 131.987C333.452 124.759 344.936 109.756 358.618 103.702Z" fill="#BAC6F2"/>
<path d="M326.588 156.796C326.588 156.796 326.899 156.059 326.836 156.37C326.134 159.708 320.829 178.238 320.829 181.772C320.829 185.645 319.679 176.552 319.679 176.552L326.588 156.796Z" fill="#BAC6F2"/>
<path d="M368.22 124.517C368.22 124.517 343.555 167.505 336.254 176.31C326.968 187.503 333.907 157.4 337.175 150.35C340.506 143.117 354.527 130.571 368.22 124.517Z" fill="#BAC6F2"/>
<path d="M332.676 178.474C332.676 178.474 332.877 178.083 332.802 178.474C331.991 182.503 325.323 204.48 325.213 208.733C325.093 213.383 323.752 202.564 323.752 202.564L332.676 178.474Z" fill="#BAC6F2"/>
<path d="M380.694 150.655C380.694 150.655 371.04 166.044 359.982 178.509C352.537 186.876 343.458 192.896 339.936 195.877C328.781 205.228 341.663 178.1 346.133 171.752C350.695 165.244 366.12 154.177 380.694 150.655Z" fill="#BAC6F2"/>
<path d="M335.938 197.171C335.938 197.171 336.139 196.78 336.064 197.171C335.253 201.2 328.102 224.961 328.176 229.214C328.176 230.221 326.807 221.422 326.807 221.422L335.938 197.171Z" fill="#BAC6F2"/>
<path d="M384.48 174.688C384.48 174.688 373.634 192.01 361.264 206.092C352.951 215.547 342.905 222.452 338.964 225.79C326.56 236.396 341.116 205.919 346.139 198.743C351.282 191.434 368.41 178.848 384.48 174.688Z" fill="#BAC6F2"/>
<path d="M394.376 215.011C394.376 215.011 374.975 223.592 360.787 232.35C344.148 242.623 341.34 243.641 336.778 244.493C322.331 247.181 348.129 219.805 355.062 216.341C362.174 212.79 379.307 210.545 394.376 215.011Z" fill="#BAC6F2"/>
<path d="M334.206 228.046C334.319 227.764 334.451 227.491 334.603 227.229C334.102 229.312 329.597 238.451 330 240.73C330.092 241.271 329.218 236.764 329.218 236.764L334.206 228.046Z" fill="#BAC6F2"/>
<path d="M334.224 243.043C334.224 243.043 334.581 242.565 334.552 242.663C334.218 243.676 330.489 247.947 331.059 249.132C331.191 249.415 329.977 247.055 329.977 247.055L334.224 243.043Z" fill="#BAC6F2"/>
<path d="M287.781 17.5004C287.781 17.5004 294.812 43.2474 299.288 49.3533C299.265 49.3533 298.811 33.3491 287.781 17.5004Z" fill="#BAC6F2"/>
<path d="M279.934 28.089C279.934 28.089 291.746 47.6554 296.659 50.4982C296.659 50.4982 292.275 35.7889 279.934 28.089Z" fill="#BAC6F2"/>
<path d="M296.55 7.46387C296.55 7.46387 294.824 38.3557 299.507 48.0583C299.501 48.0813 307.648 32.1981 296.55 7.46387Z" fill="#BAC6F2"/>
<path d="M278.058 39.0349C278.058 39.0349 291.964 64.5403 296.13 71.6244C297.108 73.2876 297.741 73.9839 298.115 74.0127C299.231 74.0875 298.005 68.1198 296.751 64.1317C295.071 58.8142 287.546 43.1841 278.058 39.0349Z" fill="#BAC6F2"/>
<path d="M298.161 73.5006C298.161 73.5006 298.069 73.374 298.161 73.5926C299.121 75.9636 304.95 90.3449 305.542 92.9288C306.193 95.7487 305.174 89.1537 305.174 89.1537L298.161 73.5006Z" fill="#BAC6F2"/>
<path d="M296.567 50.2393C296.567 50.2393 296.377 50.1587 296.423 50.2393C297.643 52.4376 300.744 62.1805 301.337 64.7644C301.987 67.5843 301.181 62.4165 301.181 62.4165L296.567 50.2393Z" fill="#BAC6F2"/>
<path d="M278.467 50.838C278.467 50.838 292.407 85.5913 297.723 92.8136C304.484 102.021 299.196 82.7887 297.597 79.4164C295.997 76.0441 287.851 56.3051 278.467 50.838Z" fill="#BAC6F2"/>
<path d="M296.567 50.2393C296.567 50.2393 296.377 50.1587 296.423 50.2393C297.643 52.4376 300.744 62.1805 301.337 64.7644C301.987 67.5843 301.181 62.4165 301.181 62.4165L296.567 50.2393Z" fill="#BAC6F2"/>
<path d="M300.33 93.9301C300.33 93.9301 300.232 93.7862 300.33 94.0279C301.388 96.6751 307.809 112.731 308.523 115.597C309.282 118.728 308.011 111.425 308.011 111.425L300.33 93.9301Z" fill="#BAC6F2"/>
<path d="M271.856 68.5283C271.856 68.5283 292.568 106.614 299.196 113.991C307.619 123.4 299.553 100.657 297.303 97.0204C295.054 93.3834 281.976 72.9825 271.856 68.5283Z" fill="#BAC6F2"/>
<path d="M302.522 115.718C302.522 115.718 302.159 115.079 302.269 115.349C303.448 118.302 310.72 134.07 311.474 137.264C312.32 140.757 311.123 133.201 311.123 133.201L302.522 115.718Z" fill="#BAC6F2"/>
<path d="M272.04 89.4182C272.04 89.4182 295.244 128.384 302.067 136.337C310.749 146.466 301.037 121.214 297.24 114.67C293.345 107.972 282.333 94.3386 272.04 89.4182Z" fill="#BAC6F2"/>
<path d="M305.45 138.219C305.45 138.219 305.076 137.534 305.191 137.828C306.446 140.976 314.098 157.803 314.972 161.204C315.899 164.916 314.535 156.899 314.535 156.899L305.45 138.219Z" fill="#BAC6F2"/>
<path d="M275.015 111.413C275.015 111.413 298.218 150.379 305.042 158.332C313.724 168.461 304.012 143.208 300.215 136.665C296.337 129.967 285.319 116.333 275.015 111.413Z" fill="#BAC6F2"/>
<path d="M308.442 160.214C308.442 160.214 308.068 159.529 308.183 159.823C309.437 162.971 317.302 180.373 318.148 183.774C319.074 187.486 317.642 178.698 317.642 178.698L308.442 160.214Z" fill="#BAC6F2"/>
<path d="M273.818 131.969C273.818 131.969 300.054 171.563 306.877 179.522C315.559 189.65 303.862 161.256 300.065 154.713C296.17 148.008 284.111 136.884 273.818 131.969Z" fill="#BAC6F2"/>
<path d="M309.702 181.369C309.702 181.369 309.478 181.006 309.616 181.369C311.106 185.167 320.674 205.798 321.767 209.867C322.958 214.309 321.232 203.864 321.232 203.864L309.702 181.369Z" fill="#BAC6F2"/>
<path d="M272.011 157.809C272.011 157.809 281.936 171.931 292.085 183.13C298.897 190.669 306.216 195.877 309.196 198.478C318.649 206.719 303.828 181.559 299.415 175.769C294.893 169.859 282.27 160.249 272.011 157.809Z" fill="#BAC6F2"/>
<path d="M312.073 199.49C312.073 199.49 311.848 199.128 311.986 199.49C313.476 203.289 323.787 225.594 324.759 229.68C324.989 230.647 323.775 222.124 323.775 222.124L312.073 199.49Z" fill="#BAC6F2"/>
<path d="M275.325 181.087C275.325 181.087 286.481 196.982 297.85 209.677C305.485 218.2 313.638 224.144 316.975 227.102C327.532 236.466 310.824 208.209 305.865 201.678C300.784 194.985 286.706 184.028 275.325 181.087Z" fill="#BAC6F2"/>
<path d="M278.587 220.335C278.587 220.335 293.178 227.309 304.444 234.785C317.676 243.555 319.713 244.349 322.855 244.873C332.837 246.519 309.622 221.952 304.294 219.08C298.863 216.122 287.252 215.086 278.587 220.335Z" fill="#BAC6F2"/>
<path d="M320.588 228.955C320.588 228.955 320.058 228.017 320.139 228.201C320.962 230.164 326.065 238.629 326.353 240.862C326.422 241.386 325.91 237.012 325.91 237.012L320.588 228.955Z" fill="#BAC6F2"/>
<path d="M324.166 243.325C324.166 243.325 323.821 242.893 323.861 242.98C324.316 243.929 327.751 247.78 327.671 248.954C327.671 249.23 327.872 246.899 327.872 246.899L324.166 243.325Z" fill="#BAC6F2"/>
<path d="M459.792 93.3431L426.434 253.868L430.093 253.269L459.792 93.3431Z" fill="#BAC6F2"/>
<path d="M456.104 67.6134C456.104 67.6134 456.191 88.2847 459.792 93.3432C459.792 93.3432 464.763 80.7171 456.104 67.6134Z" fill="#BAC6F2"/>
<path d="M442.359 75.4919C442.359 75.4919 450.725 91.6054 456.047 94.0915C456.047 94.1203 455.54 82.2654 442.359 75.4919Z" fill="#BAC6F2"/>
<path d="M470.839 60.2129C470.839 60.2129 457.94 84.4349 460.546 92.3363C460.546 92.3363 476.506 80.3087 470.839 60.2129Z" fill="#BAC6F2"/>
<path d="M436.163 84.0033C436.163 84.0033 445.161 104.876 448.044 110.688C448.723 112.052 449.292 112.639 449.77 112.68C451.179 112.8 451.674 108.035 451.444 104.824C451.133 100.548 446.887 87.79 436.163 84.0033Z" fill="#BAC6F2"/>
<path d="M449.994 112.288C449.994 112.288 449.925 112.179 449.959 112.357C450.368 114.279 452.836 125.933 452.727 127.999C452.583 130.255 453.567 125.006 453.567 125.006L449.994 112.288Z" fill="#BAC6F2"/>
<path d="M456.018 93.8843C456.018 93.8843 455.799 93.8095 455.828 93.8843C456.634 95.6856 457.226 103.535 457.094 105.601C456.95 107.857 457.709 103.742 457.709 103.742L456.018 93.8843Z" fill="#BAC6F2"/>
<path d="M432.613 93.3203C432.613 93.3203 438.441 121.479 442.756 127.464C448.245 135.083 448.124 119.654 447.238 116.915C446.352 114.176 442.733 98.1486 432.613 93.3203Z" fill="#BAC6F2"/>
<path d="M456.018 93.8843C456.018 93.8843 455.799 93.8095 455.828 93.8843C456.634 95.6856 457.226 103.535 457.094 105.601C456.95 107.857 457.709 103.742 457.709 103.742L456.018 93.8843Z" fill="#BAC6F2"/>
<path d="M445.731 128.488C445.731 128.488 445.656 128.367 445.696 128.568C446.134 130.715 448.82 143.715 448.723 146.011C448.613 148.52 449.517 142.697 449.517 142.697L445.731 128.488Z" fill="#BAC6F2"/>
<path d="M417.965 106.867C417.965 106.867 431.347 138.03 437.273 144.227C444.816 152.112 442.354 133.754 440.725 130.761C439.097 127.769 429.408 110.947 417.965 106.867Z" fill="#BAC6F2"/>
<path d="M440.95 145.764C440.95 145.764 440.708 145.24 440.754 145.459C441.243 147.853 445.109 160.675 444.994 163.241C444.868 166.038 445.955 160.024 445.955 160.024L440.95 145.764Z" fill="#BAC6F2"/>
<path d="M410.951 123.32C410.951 123.32 427.21 155.317 433.206 161.975C440.835 170.44 437.129 150.011 434.523 144.642C431.859 139.146 422.452 127.78 410.951 123.32Z" fill="#BAC6F2"/>
<path d="M436.899 163.65C436.899 163.65 436.652 163.075 436.704 163.328C437.216 165.877 441.203 179.562 441.117 182.284C441.019 185.259 442.049 178.872 442.049 178.872L436.899 163.65Z" fill="#BAC6F2"/>
<path d="M407.16 140.803C407.16 140.803 423.419 172.8 429.414 179.458C437.043 187.924 433.338 167.494 430.732 162.125C428.056 156.629 418.661 145.269 407.16 140.803Z" fill="#BAC6F2"/>
<path d="M433.108 181.133C433.108 181.133 432.86 180.558 432.912 180.811C433.424 183.36 437.48 197.5 437.394 200.233C437.296 203.208 438.505 196.205 438.505 196.205L433.108 181.133Z" fill="#BAC6F2"/>
<path d="M398.478 156.917C398.478 156.917 418.408 189.581 424.403 196.239C432.032 204.705 426.871 181.691 424.27 176.322C421.595 170.82 409.979 161.377 398.478 156.917Z" fill="#BAC6F2"/>
<path d="M427.383 197.856C427.383 197.856 427.222 197.557 427.274 197.856C427.849 200.935 432.993 217.722 432.981 220.985C432.981 224.553 434.379 216.232 434.379 216.232L427.383 197.856Z" fill="#BAC6F2"/>
<path d="M387.207 177.157C387.207 177.157 395.043 188.839 404.168 198.254C410.295 204.584 417.878 209.096 420.801 211.312C430.07 218.338 419.783 197.69 416.124 192.896C412.372 187.924 399.513 179.66 387.207 177.157Z" fill="#BAC6F2"/>
<path d="M424.138 212.255C424.138 212.255 423.977 211.956 424.029 212.255C424.604 215.334 430.116 233.479 429.949 236.748C429.909 237.519 431.307 230.746 431.307 230.746L424.138 212.255Z" fill="#BAC6F2"/>
<path d="M383.375 195.664C383.375 195.664 392.178 208.814 402.361 219.454C409.202 226.602 417.602 231.747 420.853 234.267C431.152 242.244 419.512 219.04 415.416 213.619C411.216 208.066 396.953 198.634 383.375 195.664Z" fill="#BAC6F2"/>
<path d="M373.939 226.746C373.939 226.746 390.245 233.076 402.131 239.596C416.043 247.256 418.408 247.998 422.268 248.591C434.506 250.461 413.218 229.79 407.401 227.229C401.412 224.605 386.879 223.115 373.939 226.746Z" fill="#BAC6F2"/>
<path d="M424.846 235.936C424.846 235.936 424.495 235.171 424.529 235.315C424.903 236.909 428.511 243.861 428.125 245.616C428.033 246.03 428.89 242.56 428.89 242.56L424.846 235.936Z" fill="#BAC6F2"/>
<path d="M424.455 247.452C424.455 247.452 424.161 247.089 424.184 247.164C424.443 247.941 427.51 251.193 426.998 252.085C426.877 252.304 427.97 250.479 427.97 250.479L424.455 247.452Z" fill="#BAC6F2"/>
<path d="M469.625 73.662C469.625 73.662 462.997 93.5276 459.05 98.2696C459.056 98.2696 459.838 85.9831 469.625 73.662Z" fill="#BAC6F2"/>
<path d="M476.046 81.6786C476.046 81.6786 465.5 96.8713 461.242 99.1099C461.242 99.1157 465.333 87.7902 476.046 81.6786Z" fill="#BAC6F2"/>
<path d="M462.416 66.0773C462.416 66.0773 463.089 89.7698 458.889 97.2856C458.883 97.2799 452.341 85.212 462.416 66.0773Z" fill="#BAC6F2"/>
<path d="M477.369 90.0632C477.369 90.0632 464.89 109.837 461.173 115.327C460.299 116.616 459.74 117.163 459.447 117.186C458.492 117.26 459.689 112.662 460.857 109.584C462.387 105.475 469.188 93.378 477.369 90.0632Z" fill="#BAC6F2"/>
<path d="M459.395 116.794C459.395 116.794 459.476 116.697 459.395 116.864C458.521 118.699 453.199 129.818 452.623 131.826C452.002 134.001 453.032 128.949 453.032 128.949L459.395 116.794Z" fill="#BAC6F2"/>
<path d="M461.328 98.92C461.328 98.92 461.495 98.8567 461.455 98.92C460.362 100.646 457.479 108.128 456.91 110.142C456.288 112.317 457.1 108.335 457.1 108.335L461.328 98.92Z" fill="#BAC6F2"/>
<path d="M476.713 99.1272C476.713 99.1272 463.975 126.002 459.269 131.613C453.279 138.761 458.267 123.936 459.712 121.329C461.156 118.722 468.601 103.449 476.713 99.1272Z" fill="#BAC6F2"/>
<path d="M461.328 98.92C461.328 98.92 461.495 98.8567 461.455 98.92C460.362 100.646 457.479 108.128 456.91 110.142C456.288 112.317 457.1 108.335 457.1 108.335L461.328 98.92Z" fill="#BAC6F2"/>
<path d="M457.013 132.505C457.013 132.505 457.1 132.39 457.013 132.58C456.047 134.629 450.167 147.036 449.499 149.269C448.774 151.686 450.04 146.058 450.04 146.058L457.013 132.505Z" fill="#BAC6F2"/>
<path d="M481.914 112.622C481.914 112.622 463.319 142.144 457.497 147.911C450.092 155.248 457.525 137.679 459.527 134.859C461.53 132.039 473.186 116.173 481.914 112.622Z" fill="#BAC6F2"/>
<path d="M454.626 149.269C454.626 149.269 454.948 148.774 454.85 148.981C453.768 151.283 447.186 163.466 446.444 165.935C445.633 168.628 446.841 162.81 446.841 162.81L454.626 149.269Z" fill="#BAC6F2"/>
<path d="M481.235 128.65C481.235 128.65 460.523 158.88 454.499 165.083C446.853 172.973 455.753 153.459 459.153 148.394C462.634 143.192 472.358 132.58 481.235 128.65Z" fill="#BAC6F2"/>
<path d="M451.57 166.585C451.57 166.585 451.91 166.056 451.801 166.28C450.65 168.715 443.746 181.738 442.912 184.356C442.031 187.234 443.389 181.041 443.389 181.041L451.57 166.585Z" fill="#BAC6F2"/>
<path d="M478.14 145.586C478.14 145.586 457.428 175.816 451.404 182.019C443.757 189.909 452.658 170.395 456.058 165.33C459.539 160.122 469.257 149.505 478.14 145.586Z" fill="#BAC6F2"/>
<path d="M448.475 183.51C448.475 183.51 448.815 182.981 448.705 183.205C447.555 185.639 440.432 199.106 439.621 201.73C438.74 204.607 440.196 197.828 440.196 197.828L448.475 183.51Z" fill="#BAC6F2"/>
<path d="M478.686 161.348C478.686 161.348 455.362 192.102 449.344 198.306C441.698 206.195 452.364 184.241 455.765 179.165C459.228 173.968 469.774 165.267 478.686 161.348Z" fill="#BAC6F2"/>
<path d="M446.876 199.767C446.876 199.767 447.077 199.485 446.95 199.767C445.587 202.708 436.922 218.672 435.892 221.814C434.742 225.267 436.496 217.21 436.496 217.21L446.876 199.767Z" fill="#BAC6F2"/>
<path d="M479.549 181.168C473.98 188.041 468.065 194.627 461.829 200.901C455.84 206.782 449.482 210.88 446.87 212.917C438.619 219.374 451.864 199.859 455.765 195.348C459.775 190.726 470.758 183.176 479.549 181.168Z" fill="#BAC6F2"/>
<path d="M444.402 213.711C444.402 213.711 444.603 213.429 444.477 213.711C443.113 216.652 433.775 233.916 432.849 237.064C432.63 237.807 433.873 231.252 433.873 231.252L444.402 213.711Z" fill="#BAC6F2"/>
<path d="M476.149 199.083C476.149 199.083 466.253 211.438 456.26 221.336C449.545 227.983 442.451 232.662 439.54 234.975C430.335 242.307 445.248 220.387 449.632 215.305C454.125 210.097 466.391 201.494 476.149 199.083Z" fill="#BAC6F2"/>
<path d="M472.398 229.255C472.398 229.255 459.798 234.809 450.023 240.701C438.556 247.607 436.79 248.252 434.086 248.695C425.548 250.099 445.938 230.918 450.529 228.639C455.235 226.314 465.149 225.33 472.398 229.255Z" fill="#BAC6F2"/>
<path d="M436.416 236.449C436.416 236.449 436.888 235.723 436.819 235.873C436.071 237.392 431.514 243.959 431.209 245.656C431.14 246.059 431.681 242.693 431.681 242.693L436.416 236.449Z" fill="#BAC6F2"/>
<path d="M433.01 247.527C433.01 247.527 433.315 247.193 433.275 247.256C432.861 247.993 429.823 250.997 429.886 251.895C429.886 252.108 429.765 250.318 429.765 250.318L433.01 247.527Z" fill="#BAC6F2"/>
<path d="M204.713 245.898C202.626 245.772 200.601 245.136 198.815 244.048C197.029 242.96 195.536 241.452 194.466 239.654C190.042 232.127 189.818 223.345 190.071 220.612C193.16 186.888 208.85 32.4694 249.331 28.7863C294.208 24.7004 277.316 218.31 265.067 237.197C252.818 256.084 216.738 246.692 216.738 246.692L204.713 245.898Z" fill="#B1C1F2"/>
<path d="M243.762 91.6282C243.762 91.6282 255.033 79.6179 259.233 75.1118C263.433 70.6058 272.339 57.0532 272.339 57.0532L272.782 58.9063C272.782 58.9063 252.145 89.4874 244.677 97.6995C237.209 105.912 243.244 97.2794 243.244 97.2794L243.762 91.6339" fill="#BAC6F2"/>
<path d="M239.919 116.506C239.919 116.506 229.562 103.518 226.156 99.0289C222.75 94.5402 215.092 80.4927 215.092 80.4927L214.638 81.9429C214.638 81.9429 231.657 113.686 237.767 121.858C238.825 123.28 239.015 121.34 239.015 121.34L239.7 117.887" fill="#BAC6F2"/>
<path d="M246.184 69.058C246.184 69.058 239.435 60.2991 237.197 57.2721C234.959 54.2451 229.994 44.7554 229.994 44.7554L229.551 45.4747C229.551 45.4747 240.759 67.1819 244.746 72.695C245.436 73.6503 245.574 72.3382 245.574 72.3382L246.04 70.0018" fill="#BAC6F2"/>
<path d="M238.676 125.633C238.676 125.633 259.049 114.837 267.535 104.669C275.843 94.6783 277.247 91.7375 277.247 91.7375L277.414 93.1993C277.414 93.1993 259.106 121.645 238.521 134.927C236.564 136.194 238.262 133.109 238.262 133.109L238.693 125.628" fill="#BAC6F2"/>
<path d="M234.614 141.626C234.614 141.626 219.316 130.692 213.999 120.846C208.781 111.172 207.82 107.736 207.82 107.736L207.475 109.152C207.475 109.152 218.579 136.671 233.107 148.331C233.245 148.44 233.682 148.331 233.682 148.331L234.585 141.695" fill="#BAC6F2"/>
<path d="M236.029 157.947C236.029 157.947 258.025 146.489 267.316 135.957C276.436 125.599 278.144 122.572 278.144 122.572V123.947C278.144 123.947 257.858 153.36 235.569 167.35C233.446 168.679 235.345 165.52 235.345 165.52L236.006 157.947" fill="#BAC6F2"/>
<path d="M230.84 173.911C230.84 173.911 213.976 161.825 208.142 150.891C202.389 140.17 201.716 137.149 201.716 137.149L201.371 138.95C201.371 138.95 213.131 168.467 229.131 181.352C229.28 181.472 229.775 181.352 229.775 181.352L230.799 173.98" fill="#BAC6F2"/>
<path d="M232.399 188.718C232.399 188.718 255.608 176.748 265.527 165.958C275.256 155.369 277.27 152.146 277.27 152.146L277.189 153.579C277.189 153.579 255.326 183.682 231.737 198.202C229.493 199.583 231.536 196.36 231.536 196.36L232.37 188.718" fill="#BAC6F2"/>
<path d="M227.802 203.83C227.802 203.83 210.052 191.008 204.017 179.239C198.103 167.689 197.199 163.822 197.199 163.822L196.866 165.929C196.866 165.929 209.04 198.219 225.863 211.967C226.018 212.094 226.553 211.933 226.553 211.933L227.773 203.905" fill="#BAC6F2"/>
<path d="M228.613 222.412C228.613 222.412 250.608 210.954 259.9 200.423C269.02 190.064 270.533 187.187 270.533 187.187L270.947 188.292C270.947 188.292 250.465 217.831 228.176 231.821C226.053 233.151 227.319 229.83 227.319 229.83L228.613 222.424" fill="#BAC6F2"/>
<path d="M223.418 238.376C223.418 238.376 206.554 226.291 200.72 215.357C194.967 204.635 192.481 197.298 192.481 197.298L192.234 199.312C192.234 199.312 205.72 232.909 221.72 245.794C221.87 245.915 222.365 245.794 222.365 245.794L223.389 238.422" fill="#BAC6F2"/>
<path d="M252.737 28.9296L244.579 88.1811L225.5 247.929L217.998 246.98L250.971 32.1235L251.702 28.6533L252.737 28.9296Z" fill="#BAC6F2"/>
<path d="M335.587 245.471C332.077 244.32 327.101 230.653 327.158 227.764C327.733 199.962 331.427 69.6617 376.338 61.8927C426.158 53.2605 421.825 221.497 409.766 238.307C397.707 255.116 341.099 248.349 341.099 248.349L335.587 245.471Z" fill="#B1C1F2"/>
<path d="M375.493 113.686C375.493 113.686 387.051 102.585 391.361 98.4187C395.67 94.2522 404.467 82.1901 404.467 82.1901L405.117 83.646C405.117 83.646 384.687 110.964 377.046 118.526C369.406 126.088 375.412 118.353 375.412 118.353L375.504 113.698" fill="#BAC6F2"/>
<path d="M373.329 134.404C373.329 134.404 360.672 125.058 356.449 121.806C352.226 118.555 342.497 108.029 342.497 108.029L342.111 109.261C342.111 109.261 363.859 133.08 371.379 139.007C372.685 140.038 372.731 138.432 372.731 138.432L373.203 135.555" fill="#BAC6F2"/>
<path d="M376.275 95.0463C376.275 95.0463 367.984 88.716 365.217 86.5177C362.45 84.3193 356.092 77.1833 356.092 77.1833L355.655 77.8221C355.655 77.8221 370.038 94.1601 374.969 98.1769C375.826 98.8732 375.861 97.7914 375.861 97.7914L376.183 95.8347" fill="#BAC6F2"/>
<path d="M372.731 141.965C372.731 141.965 394.594 130.789 403.155 121.501C411.578 112.391 412.896 109.83 412.896 109.83L413.206 110.981C413.206 110.981 395.198 136.303 373.341 149.539C371.264 150.799 372.892 148.088 372.892 148.088L372.731 141.954" fill="#BAC6F2"/>
<path d="M369.572 155.455C369.572 155.455 351.541 148.37 344.752 140.981C338.09 133.73 336.697 131.043 336.697 131.043L336.438 132.234C336.438 132.234 351.213 153.314 368.439 161.083C368.6 161.158 369.089 160.996 369.089 160.996L369.526 155.489" fill="#BAC6F2"/>
<path d="M372.558 168.564C372.558 168.564 396.148 156.646 405.629 146.978C414.933 137.494 416.561 134.807 416.561 134.807L416.705 135.923C416.705 135.923 396.568 162.245 372.869 176.264C370.614 177.599 372.461 174.802 372.461 174.802L372.553 168.564" fill="#BAC6F2"/>
<path d="M368.123 182.168C368.123 182.168 348.25 174.342 340.788 166.141C333.464 158.084 332.428 155.719 332.428 155.719L332.21 157.198C332.21 157.198 347.888 179.826 366.874 188.418C367.052 188.499 367.593 188.32 367.593 188.32L368.105 182.203" fill="#BAC6F2"/>
<path d="M371.137 194.029C371.137 194.029 396.044 181.553 406.199 171.585C416.158 161.802 418.132 158.959 418.132 158.959L418.166 160.11C418.166 160.11 396.303 187.158 371.247 201.781C368.859 203.168 370.861 200.308 370.861 200.308L371.137 193.977" fill="#BAC6F2"/>
<path d="M367.306 206.868C367.306 206.868 346.357 198.535 338.625 189.65C331.019 180.949 329.684 177.91 329.684 177.91L329.494 179.637C329.494 179.637 345.868 204.474 365.844 213.653C366.028 213.74 366.609 213.544 366.609 213.544L367.283 206.868" fill="#BAC6F2"/>
<path d="M369.808 221.877C369.808 221.877 393.397 209.958 402.879 200.29C412.182 190.806 413.621 188.257 413.621 188.257L414.196 189.109C414.196 189.109 393.852 215.581 370.148 229.577C367.892 230.912 368.997 228.057 368.997 228.057L369.808 221.877Z" fill="#BAC6F2"/>
<path d="M365.378 235.493C365.378 235.493 345.506 227.666 338.044 219.466C330.719 211.409 327.29 205.746 327.29 205.746L327.187 207.415C327.187 207.415 345.138 233.156 364.13 241.748C364.308 241.829 364.849 241.65 364.849 241.65L365.361 235.533" fill="#BAC6F2"/>
<path d="M380.136 61.6224L376.114 110.792L367.996 250.524L359.205 250.277L378.438 64.425L378.951 61.5188L380.136 61.6224Z" fill="#BAC6F2"/>
<path d="M147.582 121.893L104.379 247.129L107.992 246.951L147.582 121.893Z" fill="white"/>
<path d="M145.666 101.083C145.666 101.083 144.388 117.565 147.582 121.893C147.582 121.887 153.277 112.236 145.666 101.083Z" fill="white"/>
<path d="M131.696 106.245C131.696 106.245 138.825 119.752 143.871 122.186C143.871 122.186 144.153 112.714 131.696 106.245Z" fill="white"/>
<path d="M160.573 96.3815C160.573 96.3815 146.356 114.636 148.387 121.127C148.387 121.167 164.796 112.869 160.573 96.3815Z" fill="white"/>
<path d="M125.074 112.535C125.074 112.535 132.502 129.903 134.947 134.772C135.522 135.923 136.04 136.429 136.495 136.498C137.864 136.711 138.664 132.953 138.652 130.375C138.658 126.922 135.321 116.431 125.074 112.535Z" fill="white"/>
<path d="M136.748 136.193C136.748 136.193 136.685 136.101 136.708 136.245C136.978 137.811 138.652 147.306 138.388 148.94C138.1 150.73 139.406 146.638 139.406 146.638L136.748 136.193Z" fill="white"/>
<path d="M143.836 122.019C143.836 122.019 143.629 121.944 143.652 122.019C144.319 123.521 144.383 129.823 144.118 131.463C143.83 133.253 144.843 130.03 144.843 130.03L143.836 122.019Z" fill="white"/>
<path d="M120.983 119.66C120.983 119.66 124.838 142.575 128.664 147.703C133.537 154.223 134.418 141.914 133.745 139.646C133.071 137.379 130.603 124.338 120.983 119.66Z" fill="white"/>
<path d="M143.836 122.019C143.836 122.019 143.629 121.944 143.652 122.019C144.319 123.521 144.383 129.823 144.118 131.463C143.83 133.253 144.843 130.03 144.843 130.03L143.836 122.019Z" fill="white"/>
<path d="M131.506 148.762C131.506 148.762 131.443 148.658 131.472 148.819C131.76 150.546 133.537 161.152 133.284 162.97C133.014 164.962 134.28 160.392 134.28 160.392L131.506 148.762Z" fill="white"/>
<path d="M105.76 129.265C105.76 129.265 116.801 155.196 122.197 160.617C129.061 167.523 127.859 152.681 126.472 150.166C125.086 147.651 116.691 133.448 105.76 129.265Z" fill="white"/>
<path d="M125.69 162.142C125.69 162.142 125.488 161.704 125.517 161.883C125.839 163.828 128.779 174.371 128.497 176.402C128.192 178.624 129.648 173.916 129.648 173.916L125.69 162.142Z" fill="white"/>
<path d="M97.8085 141.81C97.8085 141.81 111.617 168.639 117.042 174.434C123.946 181.806 121.645 165.226 119.476 160.726C117.232 156.122 108.78 146.299 97.8085 141.81Z" fill="white"/>
<path d="M120.552 176.069C120.552 176.069 120.351 175.602 120.379 175.792C120.713 177.87 123.716 189.097 123.446 191.261C123.152 193.627 124.597 188.614 124.597 188.614L120.552 176.069Z" fill="white"/>
<path d="M92.9526 155.438C92.9526 155.438 106.761 182.266 112.186 188.062C119.091 195.433 116.789 178.854 114.62 174.354C112.37 169.75 103.919 159.926 92.9526 155.438Z" fill="white"/>
<path d="M115.69 189.696C115.69 189.696 115.489 189.23 115.518 189.42C115.851 191.497 118.889 203.105 118.624 205.269C118.331 207.634 119.977 202.155 119.977 202.155L115.69 189.696Z" fill="white"/>
<path d="M83.3962 167.569C83.3962 167.569 100.749 195.232 106.18 201.021C113.084 208.393 109.551 189.627 107.33 185.132C105.11 180.534 94.3565 172.063 83.3962 167.569Z" fill="white"/>
<path d="M108.993 202.558C108.993 202.558 108.855 202.305 108.89 202.558C109.264 205.061 113.176 218.856 112.952 221.457C112.704 224.3 114.632 217.779 114.632 217.779L108.993 202.558Z" fill="white"/>
<path d="M71.0262 182.784C75.6065 189.246 80.6932 195.332 86.2384 200.987C91.8192 206.529 98.9419 210.77 101.658 212.75C110.288 219.08 101.56 201.816 98.2975 197.672C94.9318 193.437 82.9129 185.783 71.0262 182.784Z" fill="white"/>
<path d="M104.868 213.774C104.868 213.774 104.73 213.521 104.764 213.774C105.138 216.278 109.327 231.188 108.941 233.778C108.849 234.394 110.667 229.105 110.667 229.105L104.868 213.774Z" fill="white"/>
<path d="M66.0668 197.223C66.0668 197.223 73.8109 208.422 83.0797 217.733C89.2992 223.989 97.1871 228.771 100.202 231.044C109.758 238.238 99.897 218.798 96.2436 214.142C92.4981 209.377 79.1616 200.699 66.0668 197.223Z" fill="white"/>
<path d="M54.79 221.232C54.79 221.232 70.3243 227.603 81.509 233.772C94.6211 241.011 96.8822 241.794 100.622 242.582C112.474 245.068 93.0044 226.86 87.4811 224.34C81.8197 221.762 67.6892 219.391 54.79 221.232Z" fill="white"/>
<path d="M103.999 232.707C103.999 232.707 103.706 232.069 103.729 232.19C103.993 233.49 107.066 239.326 106.565 240.695C106.45 241.017 107.515 238.324 107.515 238.324L103.999 232.707Z" fill="white"/>
<path d="M102.86 241.852C102.86 241.852 102.595 241.541 102.618 241.599C102.82 242.238 105.611 245.052 105.047 245.748C104.914 245.91 106.106 244.546 106.106 244.546L102.86 241.852Z" fill="white"/>
<path d="M158.502 107.005C158.502 107.005 150.711 122.318 146.534 125.771C146.534 125.771 148.117 116.028 158.502 107.005Z" fill="white"/>
<path d="M164.255 113.922C164.255 113.922 152.938 125.196 148.623 126.611C152.268 120.752 157.772 116.284 164.255 113.922Z" fill="white"/>
<path d="M151.943 100.369C151.943 100.369 151.045 119.314 146.437 124.954C146.437 124.954 140.827 114.802 151.943 100.369Z" fill="white"/>
<path d="M164.997 120.707C164.997 120.707 151.488 135.451 147.484 139.525C146.54 140.481 145.965 140.872 145.648 140.866C144.711 140.866 146.178 137.281 147.524 134.921C149.325 131.774 156.776 122.681 164.997 120.707Z" fill="white"/>
<path d="M145.648 140.555C145.648 140.555 145.735 140.481 145.648 140.613C144.67 142.006 138.744 150.436 138.042 151.973C137.289 153.653 138.618 149.671 138.618 149.671L145.648 140.555Z" fill="white"/>
<path d="M148.721 126.462C148.721 126.462 148.888 126.421 148.842 126.462C147.656 127.734 144.342 133.494 143.663 135.036C142.91 136.717 143.968 133.609 143.968 133.609L148.721 126.462Z" fill="white"/>
<path d="M163.76 127.877C163.76 127.877 149.526 148.261 144.555 152.353C138.226 157.532 144.078 146.149 145.666 144.192C147.254 142.236 155.539 130.668 163.76 127.877Z" fill="white"/>
<path d="M148.721 126.462C148.721 126.462 148.888 126.421 148.842 126.462C147.656 127.734 144.342 133.494 143.663 135.036C142.91 136.717 143.968 133.609 143.968 133.609L148.721 126.462Z" fill="white"/>
<path d="M142.283 152.882C142.283 152.882 142.375 152.802 142.283 152.945C141.201 154.499 134.631 163.914 133.837 165.606C132.968 167.471 134.573 163.091 134.573 163.091L142.283 152.882Z" fill="white"/>
<path d="M167.966 139.059C167.966 139.059 147.829 161.077 141.753 165.197C134.021 170.44 142.455 157.043 144.63 154.96C146.805 152.876 159.186 141.183 167.966 139.059Z" fill="white"/>
<path d="M138.848 166.055C138.848 166.055 139.199 165.687 139.084 165.848C137.875 167.574 130.632 176.782 129.74 178.675C128.774 180.758 130.315 176.218 130.315 176.218L138.848 166.055Z" fill="white"/>
<path d="M166.246 151.789C166.246 151.789 143.968 174.198 137.686 178.652C129.683 184.321 139.676 169.491 143.336 165.721C147.081 161.86 157.293 154.189 166.246 151.789Z" fill="white"/>
<path d="M134.717 179.602C134.717 179.602 135.079 179.205 134.964 179.377C133.681 181.225 126.035 191.042 125.074 193.062C124.021 195.272 125.759 190.461 125.759 190.461L134.717 179.602Z" fill="white"/>
<path d="M162.103 165.031C162.103 165.031 139.809 187.44 133.537 191.894C125.534 197.563 135.528 182.732 139.187 178.963C142.939 175.101 153.151 167.43 162.103 165.031Z" fill="white"/>
<path d="M130.574 192.838C130.574 192.838 130.937 192.441 130.822 192.613C129.539 194.461 121.68 204.612 120.713 206.638C119.66 208.848 121.513 203.57 121.513 203.57L130.574 192.838Z" fill="white"/>
<path d="M161.574 177.639C161.574 177.639 136.725 200.25 130.436 204.687C122.433 210.355 134.32 193.724 137.979 189.954C141.725 186.11 152.616 180.033 161.574 177.639Z" fill="white"/>
<path d="M127.939 205.671C127.939 205.671 128.152 205.464 128.014 205.671C126.489 207.904 116.956 219.926 115.742 222.36C114.413 225.002 116.64 218.729 116.64 218.729L127.939 205.671Z" fill="white"/>
<path d="M161.142 193.505C155.175 198.58 148.954 203.348 142.501 207.789C136.253 211.99 129.763 214.735 127.076 216.151C118.578 220.622 132.83 206.149 136.938 202.868C141.155 199.513 152.403 194.392 161.142 193.505Z" fill="white"/>
<path d="M124.602 216.582C124.602 216.582 124.815 216.375 124.677 216.582C123.152 218.815 112.877 231.815 111.761 234.249C111.496 234.825 113.147 229.697 113.147 229.697L124.602 216.582Z" fill="white"/>
<path d="M156.632 207.49C156.632 207.49 146.137 216.553 135.701 223.603C128.693 228.356 121.444 231.504 118.44 233.11C108.93 238.203 124.988 221.946 129.614 218.251C134.354 214.493 146.92 208.64 156.632 207.49Z" fill="white"/>
<path d="M150.97 231.257C150.97 231.257 138.278 234.652 128.302 238.565C116.622 243.169 114.85 243.509 112.192 243.641C103.746 244.061 124.959 230.434 129.608 228.995C134.372 227.51 144.135 227.551 150.97 231.257Z" fill="white"/>
<path d="M115.293 234.054C115.43 233.903 115.574 233.759 115.725 233.622C114.891 234.773 110 239.636 109.592 240.965C109.494 241.282 110.253 238.664 110.253 238.664L115.293 234.054Z" fill="white"/>
<path d="M111.226 242.594C111.226 242.594 111.548 242.352 111.502 242.404C111.048 242.98 107.9 245.103 107.877 245.823C107.877 245.996 107.877 244.557 107.877 244.557L111.226 242.594Z" fill="white"/>
<path d="M266.793 120.12L293.621 250.363L290.158 249.926L266.793 120.12Z" fill="white"/>
<path d="M271.108 99.1267C271.108 99.1267 270.383 115.954 266.793 120.12C266.793 120.12 262.449 109.911 271.108 99.1267Z" fill="white"/>
<path d="M283.967 105.365C283.967 105.365 275.492 118.572 270.337 120.684C270.343 120.684 271.194 111.051 283.967 105.365Z" fill="white"/>
<path d="M257.294 93.2971C257.294 93.2971 268.841 112.863 266.108 119.315C266.108 119.315 251.264 109.733 257.294 93.2971Z" fill="white"/>
<path d="M289.617 112.213C289.617 112.213 280.411 129.322 277.466 134.081C276.775 135.204 276.217 135.687 275.739 135.727C274.393 135.848 274.065 131.969 274.387 129.357C274.83 125.875 279.266 115.453 289.617 112.213Z" fill="white"/>
<path d="M275.55 135.417C275.55 135.417 275.619 135.33 275.578 135.474C275.13 137.045 272.397 146.564 272.454 148.244C272.523 150.08 271.747 145.816 271.747 145.816L275.55 135.417Z" fill="white"/>
<path d="M270.372 120.517C270.372 120.517 270.579 120.454 270.55 120.517C269.727 121.996 268.916 128.39 268.979 130.07C269.048 131.906 268.45 128.563 268.45 128.563L270.372 120.517Z" fill="white"/>
<path d="M292.712 119.746C292.712 119.746 286.28 142.765 281.982 147.674C276.511 153.947 277.109 141.39 278.035 139.146C278.961 136.901 282.908 123.821 292.712 119.746Z" fill="white"/>
<path d="M270.372 120.517C270.372 120.517 270.579 120.454 270.55 120.517C269.727 121.996 268.916 128.39 268.979 130.07C269.048 131.906 268.45 128.563 268.45 128.563L270.372 120.517Z" fill="white"/>
<path d="M279.117 148.549C279.117 148.549 279.192 148.451 279.117 148.613C278.633 150.339 275.665 160.985 275.665 162.85C275.665 164.893 275.009 160.162 275.009 160.162L279.117 148.549Z" fill="white"/>
<path d="M306.256 130.588C306.256 130.588 292.534 156.134 286.694 161.256C279.255 167.776 282.172 152.796 283.817 150.322C285.463 147.847 295.215 134.058 306.256 130.588Z" fill="white"/>
<path d="M283.138 162.55C283.138 162.55 283.386 162.119 283.334 162.303C282.793 164.26 278.731 174.751 278.731 176.834C278.766 179.136 277.914 174.227 277.914 174.227L283.138 162.55Z" fill="white"/>
<path d="M312.412 143.888C312.412 143.888 295.923 170.147 289.974 175.643C282.437 182.635 286.602 165.957 289.254 161.549C292.01 157.043 301.325 147.669 312.412 143.888Z" fill="white"/>
<path d="M286.441 177.053C286.441 177.053 286.694 176.592 286.642 176.788C286.067 178.871 281.85 190.064 281.85 192.28C281.85 194.703 281.067 189.512 281.067 189.512L286.441 177.053Z" fill="white"/>
<path d="M315.502 158.073C315.502 158.073 299.012 184.332 293.063 189.828C285.526 196.82 289.692 180.143 292.344 175.735C295.083 171.235 304.397 161.854 315.502 158.073Z" fill="white"/>
<path d="M289.519 191.238C289.519 191.238 289.772 190.778 289.72 190.973C289.145 193.057 284.847 204.624 284.847 206.84C284.847 209.262 283.909 203.582 283.909 203.582L289.519 191.238Z" fill="white"/>
<path d="M323.286 171.073C323.286 171.073 303.275 197.925 297.349 203.421C289.812 210.413 295.445 191.612 298.097 187.204C300.807 182.692 312.182 174.854 323.286 171.073Z" fill="white"/>
<path d="M294.455 204.779C294.455 204.779 294.617 204.532 294.559 204.779C293.903 207.294 288.495 221.025 288.403 223.684C288.305 226.561 287.218 219.828 287.218 219.828L294.455 204.779Z" fill="white"/>
<path d="M333.412 187.4C328.247 193.613 322.622 199.429 316.583 204.796C310.542 210.022 303.178 213.797 300.318 215.644C291.262 221.485 301.711 204.543 305.347 200.572C309.075 196.515 321.617 189.604 333.412 187.4Z" fill="white"/>
<path d="M297.102 216.456C297.102 216.456 297.263 216.208 297.206 216.456C296.55 218.971 290.744 233.812 290.802 236.471C290.802 237.098 289.692 231.603 289.692 231.603L297.102 216.456Z" fill="white"/>
<path d="M336.484 202.42C336.484 202.42 327.687 213.239 317.648 222.032C310.905 227.937 302.735 232.236 299.559 234.33C289.49 240.954 301.285 221.917 305.381 217.451C309.535 212.876 323.447 205.015 336.484 202.42Z" fill="white"/>
<path d="M344.516 227.597C344.516 227.597 328.775 232.955 317.268 238.428C303.782 244.844 301.48 245.472 297.787 246.013C286.067 247.693 306.992 230.59 312.625 228.426C318.384 226.216 332.29 224.812 344.516 227.597Z" fill="white"/>
<path d="M295.692 235.746C295.692 235.746 296.049 235.119 296.015 235.24C295.606 236.54 291.953 242.249 292.269 243.67C292.344 244.004 291.636 241.19 291.636 241.19L295.692 235.746Z" fill="white"/>
<path d="M295.727 245.109C295.727 245.109 296.015 244.81 295.992 244.873C295.722 245.506 292.695 248.177 293.155 248.902C293.265 249.075 292.275 247.607 292.275 247.607L295.727 245.109Z" fill="white"/>
<path d="M258.03 104.231C258.03 104.231 263.732 120.316 267.351 124.126C267.345 124.126 266.96 114.129 258.03 104.231Z" fill="white"/>
<path d="M251.661 110.844C251.661 110.844 261.247 123.072 265.234 124.845C262.487 118.733 257.684 113.778 251.661 110.844Z" fill="white"/>
<path d="M265.142 97.9586C265.142 97.9586 263.767 117.255 267.541 123.314C267.535 123.314 274.152 113.41 265.142 97.9586Z" fill="white"/>
<path d="M250.142 117.68C250.142 117.68 261.425 133.61 264.802 138.035C265.596 139.077 266.108 139.508 266.413 139.526C267.322 139.572 266.327 135.842 265.309 133.356C263.945 130.036 257.835 120.27 250.142 117.68Z" fill="white"/>
<path d="M266.448 139.209C266.448 139.209 266.373 139.129 266.448 139.267C267.224 140.751 271.954 149.735 272.437 151.352C272.966 153.113 272.138 148.992 272.138 148.992L266.448 139.209Z" fill="white"/>
<path d="M265.159 124.678C265.159 124.678 265.004 124.626 265.038 124.678C266.028 126.054 268.542 132.159 269.025 133.754C269.555 135.514 268.899 132.286 268.899 132.286L265.159 124.678Z" fill="white"/>
<path d="M250.488 125.052C250.488 125.052 261.799 146.76 266.108 151.271C271.597 157.026 267.305 145.01 266.005 142.904C264.704 140.798 258.088 128.465 250.488 125.052Z" fill="white"/>
<path d="M265.159 124.678C265.159 124.678 265.004 124.626 265.038 124.678C266.028 126.054 268.542 132.159 269.025 133.754C269.555 135.514 268.899 132.286 268.899 132.286L265.159 124.678Z" fill="white"/>
<path d="M268.231 151.968C268.231 151.968 268.151 151.875 268.231 152.031C269.088 153.688 274.313 163.713 274.876 165.503C275.492 167.459 274.462 162.896 274.462 162.896L268.231 151.968Z" fill="white"/>
<path d="M245.097 136.13C245.097 136.13 261.908 159.921 267.282 164.536C274.117 170.412 267.57 156.209 265.746 153.936C263.922 151.663 253.318 138.881 245.097 136.13Z" fill="white"/>
<path d="M269.986 165.578C269.986 165.578 269.693 165.181 269.785 165.348C270.746 167.195 276.643 177.041 277.264 179.038C277.949 181.219 276.982 176.5 276.982 176.5L269.986 165.578Z" fill="white"/>
<path d="M245.258 149.154C245.258 149.154 264.083 173.491 269.618 178.463C276.66 184.793 268.784 169.019 265.7 164.927C262.541 160.738 253.606 152.244 245.258 149.154Z" fill="white"/>
<path d="M272.368 179.637C272.368 179.637 272.063 179.211 272.155 179.389C273.173 181.357 279.381 191.866 280.072 193.989C280.826 196.291 279.715 191.302 279.715 191.302L272.368 179.637Z" fill="white"/>
<path d="M247.68 162.89C247.68 162.89 266.505 187.227 272.04 192.199C279.082 198.53 271.206 182.756 268.122 178.664C264.969 174.48 256.028 165.963 247.68 162.89Z" fill="white"/>
<path d="M274.79 193.373C274.79 193.373 274.485 192.948 274.577 193.126C275.596 195.094 281.976 205.965 282.661 208.088C283.415 210.39 282.252 204.918 282.252 204.918L274.79 193.373Z" fill="white"/>
<path d="M246.702 175.729C246.702 175.729 267.99 200.475 273.524 205.43C280.567 211.76 271.079 194.024 267.995 189.932C264.837 185.748 255.05 178.802 246.702 175.729Z" fill="white"/>
<path d="M275.814 206.587C275.814 206.587 275.63 206.362 275.745 206.587C276.954 208.963 284.721 221.848 285.607 224.386C286.573 227.16 285.175 220.634 285.175 220.634L275.814 206.587Z" fill="white"/>
<path d="M245.235 191.871C250.376 197.437 255.814 202.722 261.523 207.703C267.052 212.41 272.984 215.662 275.406 217.29C283.075 222.441 271.05 206.725 267.466 203.105C263.795 199.399 253.56 193.391 245.235 191.871Z" fill="white"/>
<path d="M277.736 217.906C277.736 217.906 277.552 217.682 277.667 217.906C278.875 220.283 287.241 234.215 288.023 236.765C288.207 237.34 287.223 232.046 287.223 232.046L277.736 217.906Z" fill="white"/>
<path d="M247.922 206.408C253.699 212.668 259.798 218.623 266.195 224.248C272.385 229.571 279.008 233.283 281.729 235.13C290.296 240.977 276.741 223.327 272.713 219.247C268.576 215.092 257.179 208.249 247.922 206.408Z" fill="white"/>
<path d="M250.568 230.924C250.568 230.924 262.409 235.28 271.545 239.947C282.264 245.426 283.932 245.921 286.504 246.249C294.599 247.279 275.757 231.931 271.447 230.135C267.023 228.305 257.599 227.632 250.568 230.924Z" fill="white"/>
<path d="M284.646 236.31C284.532 236.147 284.409 235.989 284.278 235.838C284.945 237.064 289.082 242.353 289.323 243.728C289.381 244.056 288.961 241.323 288.961 241.323L284.646 236.31Z" fill="white"/>
<path d="M287.551 245.288C287.551 245.288 287.269 245.017 287.304 245.075C287.672 245.65 290.457 248.073 290.394 248.804C290.394 248.977 290.561 247.521 290.561 247.521L287.551 245.288Z" fill="white"/>
</svg>
