<svg width="30" height="30" viewBox="0 0 30 30" fill="none" xmlns="http://www.w3.org/2000/svg">
<path d="M0.75 15.5007C0.75 14.0019 2.0616 12.7051 3.78378 12.7051C5.50597 12.7051 6.81757 14.0019 6.81757 15.5007V26.2745C6.81757 27.7733 5.50597 29.0702 3.78378 29.0702C2.0616 29.0702 0.75 27.7733 0.75 26.2745V15.5007Z" stroke="black" stroke-width="1.5"/>
<path d="M23.1824 3.54566C23.1824 2.04683 24.494 0.75 26.2162 0.75C27.9383 0.75 29.2499 2.04683 29.2499 3.54566V26.2744C29.2499 27.7732 27.9383 29.0701 26.2162 29.0701C24.494 29.0701 23.1824 27.7732 23.1824 26.2744V3.54566Z" stroke="black" stroke-width="1.5"/>
<path d="M11.75 12.1118C11.75 10.5487 12.166 9.1681 12.7991 8.2008C13.4365 7.22693 14.2307 6.75 15 6.75C15.7693 6.75 16.5635 7.22693 17.2009 8.2008C17.834 9.1681 18.25 10.5487 18.25 12.1118V23.8882C18.25 25.4513 17.834 26.8319 17.2009 27.7992C16.5635 28.7731 15.7693 29.25 15 29.25C14.2307 29.25 13.4365 28.7731 12.7991 27.7992C12.166 26.8319 11.75 25.4513 11.75 23.8882V12.1118Z" stroke="black" stroke-width="1.5"/>
</svg>
