<svg width="30" height="30" viewBox="0 0 30 30" fill="none" xmlns="http://www.w3.org/2000/svg">
<path d="M0.75 15.5007C0.75 14.0019 2.0616 12.7051 3.78378 12.7051C5.50597 12.7051 6.81757 14.0019 6.81757 15.5007V26.2745C6.81757 27.7733 5.50597 29.0702 3.78378 29.0702C2.0616 29.0702 0.75 27.7733 0.75 26.2745V15.5007Z" stroke="black" stroke-width="1.5"/>
<path d="M23.1824 3.54566C23.1824 2.04683 24.494 0.75 26.2162 0.75C27.9383 0.75 29.2499 2.04683 29.2499 3.54566V26.2744C29.2499 27.7732 27.9383 29.0701 26.2162 29.0701C24.494 29.0701 23.1824 27.7732 23.1824 26.2744V3.54566Z" stroke="black" stroke-width="1.5"/>
<path d="M11.75 11.1118C11.75 9.55228 12.163 8.46172 12.7443 7.77437C13.3177 7.09625 14.1035 6.75 15 6.75C15.8965 6.75 16.6823 7.09625 17.2557 7.77437C17.837 8.46172 18.25 9.55228 18.25 11.1118V24.8882C18.25 26.4477 17.837 27.5383 17.2557 28.2256C16.6823 28.9037 15.8965 29.25 15 29.25C14.1035 29.25 13.3177 28.9037 12.7443 28.2256C12.163 27.5383 11.75 26.4477 11.75 24.8882V11.1118Z" stroke="black" stroke-width="1.5"/>
</svg>
