<svg width="30" height="30" viewBox="0 0 30 30" fill="none" xmlns="http://www.w3.org/2000/svg">
<path d="M25.2231 6.98372L11.9175 21.1002L5.54567 15.2494C5.24419 14.972 4.77435 14.9924 4.49809 15.2939C4.22071 15.5954 4.24111 16.0645 4.54259 16.3415L11.454 22.6877C11.5964 22.8186 11.7759 22.8832 11.9557 22.8832C12.1526 22.8832 12.3499 22.8049 12.4953 22.6503L26.3025 8.00089C26.5836 7.70275 26.5699 7.23329 26.2717 6.95257C25.9736 6.67186 25.5045 6.68558 25.2231 6.98372ZM29.258 7.70683C29.6674 7.70683 29.9996 7.37457 29.9996 6.96518V3.57326C29.9996 1.60307 28.3969 0 26.4264 0H3.57326C1.60307 0 0 1.6027 0 3.57326V26.4267C0 28.3969 1.6027 30 3.57326 30H26.4267C28.3969 30 30 28.3973 30 26.4267V10.6734C30 10.264 29.6677 9.93177 29.2584 9.93177C28.849 9.93177 28.5167 10.264 28.5167 10.6734V26.4264C28.5167 27.5785 27.5793 28.5163 26.4267 28.5163H3.57326C2.42111 28.5163 1.48329 27.5789 1.48329 26.4264V3.57326C1.48329 2.42111 2.42074 1.48329 3.57326 1.48329H26.4267C27.5789 1.48329 28.5167 2.42074 28.5167 3.57326V6.96518C28.5163 7.37494 28.8486 7.70683 29.258 7.70683Z" fill="black"/>
</svg>
