<svg width="35" height="30" viewBox="0 0 35 30" fill="none" xmlns="http://www.w3.org/2000/svg">
<path d="M2.60945 15.0292L11.1819 6.4567C11.6039 6.03435 11.6039 5.3504 11.1819 4.92805C10.76 4.50608 10.0749 4.50608 9.6533 4.92805L0.316478 14.2649C-0.105493 14.6872 -0.105493 15.3712 0.316478 15.7935L9.6931 25.1701C9.9039 25.3809 10.1807 25.4867 10.4574 25.4867C10.7342 25.4867 11.011 25.3809 11.2221 25.1701C11.6441 24.7478 11.6441 24.0638 11.2221 23.6415L2.60945 15.0292Z" fill="black"/>
<path d="M33.893 14.2649L24.5562 4.92805C24.1342 4.50608 23.4495 4.50608 23.0275 4.92805C22.6056 5.3504 22.6056 6.03435 23.0275 6.4567L31.6 15.0292L22.9881 23.6415C22.5661 24.0638 22.5661 24.7478 22.9881 25.1701C23.1993 25.3809 23.4761 25.4867 23.7528 25.4867C24.0296 25.4867 24.306 25.3809 24.5171 25.1701L33.8934 15.7935C34.3154 15.3712 34.3154 14.6872 33.893 14.2649Z" fill="black"/>
<path d="M20.3088 0.029066C19.7291 -0.108179 19.146 0.25389 19.0099 0.835095L12.4934 28.6727C12.3577 29.2539 12.7183 29.8351 13.2995 29.9712C13.3825 29.9909 13.4655 30 13.5467 30C14.0372 30 14.4816 29.6633 14.598 29.1652L21.1145 1.32796C21.2509 0.746758 20.89 0.165173 20.3088 0.029066Z" fill="black"/>
</svg>
