<svg width="30" height="30" viewBox="0 0 30 30" fill="none" xmlns="http://www.w3.org/2000/svg">
<path d="M13.4005 4.63917C13.8235 4.2152 14.061 3.64076 14.061 3.04187C14.061 2.44297 13.8235 1.86853 13.4005 1.44456C13.2418 1.28587 13.1526 1.07063 13.1526 0.846203C13.1526 0.621776 13.2418 0.406541 13.4005 0.247847C13.5592 0.0891533 13.7744 1.67211e-09 13.9988 0C14.2233 -1.67211e-09 14.4385 0.0891533 14.5972 0.247847C15.3362 0.989233 15.7512 1.99336 15.7512 3.04017C15.7512 4.08699 15.3362 5.09112 14.5972 5.8325C14.1742 6.25648 13.9367 6.83092 13.9367 7.42981C13.9367 8.0287 14.1742 8.60314 14.5972 9.02712C14.6758 9.10569 14.7381 9.19898 14.7806 9.30164C14.8231 9.40431 14.845 9.51435 14.845 9.62547C14.845 9.7366 14.8231 9.84663 14.7806 9.9493C14.7381 10.052 14.6758 10.1452 14.5972 10.2238C14.5186 10.3024 14.4253 10.3647 14.3227 10.4073C14.22 10.4498 14.11 10.4717 13.9988 10.4717C13.8877 10.4717 13.7777 10.4498 13.675 10.4073C13.5723 10.3647 13.4791 10.3024 13.4005 10.2238C12.6614 9.48244 12.2465 8.47832 12.2465 7.4315C12.2465 6.38468 12.6614 5.38056 13.4005 4.63917ZM18.4713 5.90011C17.8982 6.47432 17.5764 7.25242 17.5764 8.06366C17.5764 8.8749 17.8982 9.653 18.4713 10.2272C18.63 10.3859 18.8452 10.4751 19.0696 10.4751C19.2941 10.4751 19.5093 10.3859 19.668 10.2272C19.8267 10.0685 19.9158 9.85328 19.9158 9.62885C19.9158 9.40442 19.8267 9.18919 19.668 9.0305C19.4118 8.77326 19.268 8.42501 19.268 8.06197C19.268 7.69893 19.4118 7.35068 19.668 7.09344C19.9522 6.80935 20.1776 6.47205 20.3314 6.10083C20.4852 5.7296 20.5643 5.33172 20.5643 4.9299C20.5643 4.52808 20.4852 4.13019 20.3314 3.75897C20.1776 3.38774 19.9522 3.05045 19.668 2.76635C19.5894 2.68777 19.4961 2.62544 19.3935 2.58292C19.2908 2.54039 19.1808 2.5185 19.0696 2.5185C18.9585 2.5185 18.8485 2.54039 18.7458 2.58292C18.6432 2.62544 18.5499 2.68777 18.4713 2.76635C18.3927 2.84493 18.3304 2.93821 18.2879 3.04088C18.2453 3.14355 18.2234 3.25358 18.2234 3.36471C18.2234 3.47583 18.2453 3.58587 18.2879 3.68853C18.3304 3.7912 18.3927 3.88449 18.4713 3.96306C18.5985 4.09021 18.6995 4.24119 18.7684 4.40738C18.8373 4.57357 18.8727 4.75169 18.8727 4.93159C18.8727 5.11148 18.8373 5.28961 18.7684 5.4558C18.6995 5.62198 18.5985 5.77296 18.4713 5.90011ZM8.32966 10.2272C8.40824 10.3058 8.50152 10.3681 8.60419 10.4106C8.70686 10.4532 8.81689 10.4751 8.92802 10.4751C9.03914 10.4751 9.14918 10.4532 9.25185 10.4106C9.35451 10.3681 9.4478 10.3058 9.52637 10.2272C9.60495 10.1486 9.66728 10.0553 9.70981 9.95268C9.75233 9.85001 9.77422 9.73998 9.77422 9.62885C9.77422 9.51773 9.75233 9.40769 9.70981 9.30502C9.66728 9.20236 9.60495 9.10907 9.52637 9.0305C9.27019 8.77326 9.12635 8.42501 9.12635 8.06197C9.12635 7.69893 9.27019 7.35068 9.52637 7.09344C10.0994 6.51924 10.4213 5.74114 10.4213 4.9299C10.4213 4.11866 10.0994 3.34056 9.52637 2.76635C9.4478 2.68777 9.35451 2.62544 9.25185 2.58292C9.14918 2.54039 9.03914 2.5185 8.92802 2.5185C8.81689 2.5185 8.70686 2.54039 8.60419 2.58292C8.50152 2.62544 8.40824 2.68777 8.32966 2.76635C8.25109 2.84493 8.18876 2.93821 8.14623 3.04088C8.1037 3.14355 8.08182 3.25358 8.08182 3.36471C8.08182 3.47583 8.1037 3.58587 8.14623 3.68853C8.18876 3.7912 8.25109 3.88449 8.32966 3.96306C8.58585 4.22029 8.72968 4.56855 8.72968 4.93159C8.72968 5.29463 8.58585 5.64288 8.32966 5.90011C7.75763 6.47418 7.43644 7.25156 7.43644 8.06197C7.43644 8.87238 7.75763 9.64976 8.32966 10.2238V10.2272ZM6.87907e-06 29.1582C-0.000894517 28.9347 0.0868222 28.7199 0.243953 28.5608C0.401083 28.4018 0.614824 28.3115 0.838381 28.3097H6.74419C4.94569 27.1454 3.59538 25.4054 2.91403 23.3741C2.85995 23.2096 2.80811 23.0428 2.75853 22.8738C2.00345 20.2164 1.53094 17.4867 1.34884 14.7301C1.33113 14.4164 1.37744 14.1024 1.48495 13.8071C1.59247 13.5119 1.75894 13.2416 1.97424 13.0128C2.19194 12.7831 2.45398 12.5999 2.74452 12.4744C3.03505 12.3489 3.34803 12.2836 3.66451 12.2826H22.6767C22.9932 12.2836 23.3061 12.3489 23.5967 12.4744C23.8872 12.5999 24.1493 12.7831 24.367 13.0128C24.5824 13.2415 24.749 13.5118 24.8565 13.807C24.9641 14.1023 25.0103 14.4164 24.9924 14.7301C24.9585 15.3115 24.9045 15.9099 24.8335 16.515H25.3338C25.9498 16.5149 26.5577 16.655 27.1114 16.9247C27.6652 17.1945 28.1503 17.5868 28.5298 18.0719C28.9094 18.5571 29.1735 19.1222 29.3021 19.7246C29.4307 20.327 29.4205 20.9508 29.2721 21.5486C29.0529 22.4257 28.547 23.2044 27.8347 23.7611C27.1224 24.3178 26.2446 24.6207 25.3406 24.6216H22.893C22.1175 26.1203 20.9653 27.3913 19.5497 28.3097H25.3338C25.5579 28.3097 25.7729 28.3988 25.9314 28.5573C26.0899 28.7158 26.1789 28.9307 26.1789 29.1549C26.1789 29.379 26.0899 29.594 25.9314 29.7525C25.7729 29.911 25.5579 30 25.3338 30H0.838381C0.615411 29.9982 0.40218 29.9084 0.245146 29.7501C0.0881118 29.5918 -2.5632e-07 29.3778 6.87907e-06 29.1549V29.1582ZM23.5691 22.9313H25.3372C25.8642 22.9305 26.3758 22.7538 26.791 22.4293C27.2062 22.1047 27.5012 21.6508 27.6292 21.1396C27.7153 20.7914 27.7211 20.4282 27.6462 20.0775C27.5713 19.7268 27.4176 19.3976 27.1969 19.115C26.9761 18.8323 26.6939 18.6036 26.3718 18.446C26.0496 18.2884 25.6958 18.2061 25.3372 18.2053H24.607C24.3618 19.7813 24.0232 21.3414 23.5928 22.8772L23.5691 22.9313ZM12.197 28.2387H14.1408C15.886 28.247 17.5872 27.6923 18.9922 26.657C20.3971 25.6218 21.4307 24.1611 21.9397 22.4918L21.9634 22.4141C22.6862 19.8771 23.1394 17.2709 23.3156 14.6388C23.3203 14.5552 23.3078 14.4715 23.2787 14.393C23.2496 14.3145 23.2046 14.2428 23.1466 14.1824C23.0861 14.119 23.0131 14.0688 22.9322 14.035C22.8513 14.0013 22.7643 13.9847 22.6767 13.9864H3.67128C3.58396 13.9856 3.49742 14.0029 3.41713 14.0372C3.33684 14.0716 3.26453 14.1222 3.20476 14.1858C3.1467 14.2462 3.10172 14.3178 3.07264 14.3964C3.04355 14.4749 3.03099 14.5586 3.03573 14.6422C3.21192 17.2743 3.66516 19.8804 4.38795 22.4174C4.42852 22.5628 4.47246 22.7048 4.51979 22.8434C5.07024 24.4353 6.10822 25.8134 7.48635 26.7819C8.86449 27.7504 10.5127 28.2602 12.197 28.2387Z" fill="black"/>
</svg>
