<svg width="542" height="1024" viewBox="0 0 542 1024" fill="none" xmlns="http://www.w3.org/2000/svg">
<g id="Group 33">
<g id="screenshot">
<g id="Rectangle 20" filter="url(#filter0_d)">
<rect x="85" y="104" width="375" height="725" rx="30" fill="#FAFAFA"/>
</g>
<rect id="Rectangle 21" x="214" y="810" width="120" height="5" rx="2.5" fill="#E6E3E3"/>
<rect id="Rectangle 22" x="121" y="216" width="170" height="15" rx="7.5" fill="#EEEEEE"/>
<rect id="Rectangle 25" x="121" y="246" width="80" height="15" rx="7.5" fill="#EEEEEE"/>
<rect id="Rectangle 31" x="143" y="301" width="90" height="12" rx="6" fill="#EEEEEE"/>
<rect id="Rectangle 24" x="121" y="340" width="299" height="221" rx="10" fill="white"/>
<rect id="Rectangle 32" x="122" y="570" width="176" height="146" rx="10" fill="white"/>
<rect id="Rectangle 33" x="310" y="570" width="110" height="146" rx="10" fill="white"/>
<circle id="Ellipse 3" cx="397.5" cy="169.5" r="25.5" fill="#EEEEEE"/>
<path id="trackgit" d="M127.325 158.275V163.025H129.975V165.75H127.325V174H123.825V165.75H122.125V163.025H123.825V158.275H127.325ZM136.564 165.575C136.864 164.992 137.272 164.467 137.789 164C138.322 163.533 138.864 163.175 139.414 162.925C139.964 162.658 140.397 162.525 140.714 162.525L140.539 166.025C140.439 166.008 140.297 166 140.114 166C139.414 166 138.797 166.183 138.264 166.55C137.731 166.917 137.322 167.392 137.039 167.975C136.756 168.542 136.614 169.125 136.614 169.725V174H133.139V163.075H136.289L136.564 165.575ZM155.277 163.075V174H151.777V172.65C150.727 173.75 149.51 174.3 148.127 174.3C146.51 174.3 145.193 173.817 144.177 172.85C143.177 171.883 142.677 170.45 142.677 168.55C142.677 167.35 142.918 166.3 143.402 165.4C143.902 164.483 144.56 163.775 145.377 163.275C146.193 162.775 147.068 162.525 148.002 162.525C148.968 162.525 149.735 162.675 150.302 162.975C150.868 163.258 151.368 163.667 151.802 164.2L152.027 163.075H155.277ZM149.127 171.45C150.343 171.45 151.227 170.9 151.777 169.8V167.125C151.577 166.592 151.227 166.167 150.727 165.85C150.243 165.533 149.668 165.375 149.002 165.375C148.235 165.375 147.577 165.658 147.027 166.225C146.493 166.792 146.227 167.508 146.227 168.375C146.227 168.942 146.36 169.467 146.627 169.95C146.893 170.417 147.243 170.783 147.677 171.05C148.127 171.317 148.61 171.45 149.127 171.45ZM168.658 173.025C168.175 173.408 167.566 173.717 166.833 173.95C166.116 174.183 165.408 174.3 164.708 174.3C162.808 174.3 161.3 173.792 160.183 172.775C159.083 171.742 158.533 170.325 158.533 168.525C158.533 167.358 158.8 166.342 159.333 165.475C159.883 164.592 160.6 163.925 161.483 163.475C162.366 163.008 163.316 162.775 164.333 162.775C166.15 162.775 167.625 163.258 168.758 164.225L167.058 166.475C166.341 165.908 165.541 165.625 164.658 165.625C163.925 165.625 163.3 165.9 162.783 166.45C162.283 167 162.033 167.692 162.033 168.525C162.033 169.358 162.308 170.058 162.858 170.625C163.408 171.175 164.125 171.45 165.008 171.45C165.775 171.45 166.408 171.242 166.908 170.825L168.658 173.025ZM176.321 169.45L175.346 170.175V174H171.846V154.275H175.346V166.625L180.546 162.8L182.671 164.675L178.796 167.6L183.071 174H178.996L176.321 169.45ZM197.974 163.075V174C197.974 175.033 197.674 175.967 197.074 176.8C196.491 177.65 195.691 178.308 194.674 178.775C193.674 179.258 192.583 179.5 191.399 179.5C190.499 179.5 189.708 179.392 189.024 179.175C188.358 178.958 187.816 178.717 187.399 178.45C186.999 178.183 186.516 177.817 185.949 177.35L187.999 174.95C188.499 175.417 188.991 175.783 189.474 176.05C189.974 176.317 190.599 176.45 191.349 176.45C192.233 176.45 192.974 176.225 193.574 175.775C194.174 175.342 194.474 174.733 194.474 173.95V172.4C194.141 172.967 193.624 173.425 192.924 173.775C192.241 174.125 191.399 174.3 190.399 174.3C189.416 174.3 188.499 174.05 187.649 173.55C186.816 173.033 186.149 172.333 185.649 171.45C185.149 170.55 184.899 169.558 184.899 168.475C184.899 167.375 185.158 166.367 185.674 165.45C186.208 164.533 186.899 163.817 187.749 163.3C188.616 162.783 189.524 162.525 190.474 162.525C191.374 162.525 192.174 162.658 192.874 162.925C193.574 163.175 194.108 163.508 194.474 163.925L194.749 163.075H197.974ZM191.449 171.45C192.849 171.45 193.858 170.9 194.474 169.8V167.125C194.241 166.592 193.849 166.167 193.299 165.85C192.766 165.533 192.149 165.375 191.449 165.375C190.599 165.375 189.883 165.658 189.299 166.225C188.716 166.792 188.424 167.508 188.424 168.375C188.424 169.242 188.716 169.975 189.299 170.575C189.883 171.158 190.599 171.45 191.449 171.45ZM205.57 163.075V174H202.07V163.075H205.57ZM201.995 159.2C201.995 158.7 202.186 158.283 202.57 157.95C202.97 157.6 203.42 157.425 203.92 157.425C204.403 157.425 204.836 157.6 205.22 157.95C205.603 158.283 205.795 158.7 205.795 159.2C205.795 159.7 205.603 160.117 205.22 160.45C204.836 160.783 204.403 160.95 203.92 160.95C203.42 160.95 202.97 160.783 202.57 160.45C202.186 160.117 201.995 159.7 201.995 159.2ZM214.199 158.275V163.025H216.849V165.75H214.199V174H210.699V165.75H208.999V163.025H210.699V158.275H214.199Z" fill="#CDCDCD"/>
<circle id="Ellipse 9" cx="127" cy="307" r="6" fill="#EEEEEE"/>
</g>
<g id="graph">
<g id="Vector">
<path d="M7.95764 562.557C7.95764 562.557 13.0733 490.8 53.1456 497.919C92.9906 504.981 88.3866 541.201 108.849 536.645C129.312 532.089 130.96 483.226 138.974 425.024C145.909 374.509 173.533 390 178.706 406.287C183.026 419.955 184.731 462.895 201.214 465.743C217.698 468.59 223.382 436.129 224.519 420.183C225.656 404.237 231.34 339.315 252.086 338.46C271.696 337.663 280.222 366.65 280.222 421.891C280.222 477.132 282.496 513.011 291.59 527.817C300.685 542.624 312.621 538.638 316.316 536.645C320.92 534.139 334.789 510.733 338.199 452.644C341.61 394.556 364.346 403.098 369.462 411.641C374.577 420.183 388.503 467.166 405.555 466.027C422.607 464.888 427.439 453.783 430.281 427.586C433.123 401.39 437.329 336.524 458.985 337.321C481.437 338.176 490.418 440.742 490.077 471.608C489.622 510.505 516.19 562.557 534.378 562.557" fill="url(#paint0_linear)"/>
<path d="M7.95764 562.557C7.95764 562.557 13.0733 490.8 53.1456 497.919C92.9906 504.981 88.3866 541.201 108.849 536.645C129.312 532.089 130.96 483.226 138.974 425.024C145.909 374.509 173.533 390 178.706 406.287C183.026 419.955 184.731 462.895 201.214 465.743C217.698 468.59 223.382 436.129 224.519 420.183C225.656 404.237 231.34 339.315 252.086 338.46C271.696 337.663 280.222 366.65 280.222 421.891C280.222 477.132 282.496 513.011 291.59 527.817C300.685 542.624 312.621 538.638 316.316 536.645C320.92 534.139 334.789 510.733 338.199 452.644C341.61 394.556 364.346 403.098 369.462 411.641C374.577 420.183 388.503 467.166 405.555 466.027C422.607 464.888 427.439 453.783 430.281 427.586C433.123 401.39 437.329 336.524 458.985 337.321C481.437 338.176 490.418 440.742 490.077 471.608C489.622 510.505 516.19 562.557 534.378 562.557" stroke="#6B09C0" stroke-opacity="0.5" stroke-width="1.29674" stroke-miterlimit="10"/>
</g>
<path id="Vector_2" d="M107.428 543.763C111.509 543.763 114.817 540.449 114.817 536.36C114.817 532.271 111.509 528.956 107.428 528.956C103.347 528.956 100.039 532.271 100.039 536.36C100.039 540.449 103.347 543.763 107.428 543.763Z" fill="#6B09C0"/>
<path id="Vector_3" d="M7.38923 569.22C11.4702 569.22 14.7785 565.905 14.7785 561.816C14.7785 557.727 11.4702 554.413 7.38923 554.413C3.30827 554.413 0 557.727 0 561.816C0 565.905 3.30827 569.22 7.38923 569.22Z" fill="#6B09C0"/>
<path id="Vector_4" d="M205.762 472.007C209.843 472.007 213.151 468.692 213.151 464.604C213.151 460.515 209.843 457.2 205.762 457.2C201.681 457.2 198.372 460.515 198.372 464.604C198.372 468.692 201.681 472.007 205.762 472.007Z" fill="#6B09C0"/>
<path id="Vector_5" d="M160.289 398.599C164.37 398.599 167.679 395.284 167.679 391.196C167.679 387.107 164.37 383.792 160.289 383.792C156.208 383.792 152.9 387.107 152.9 391.196C152.9 395.284 156.208 398.599 160.289 398.599Z" fill="#6B09C0"/>
<path id="Vector_6" d="M254.758 346.604C258.839 346.604 262.147 343.289 262.147 339.201C262.147 335.112 258.839 331.797 254.758 331.797C250.677 331.797 247.369 335.112 247.369 339.201C247.369 343.289 250.677 346.604 254.758 346.604Z" fill="#6B09C0"/>
<path id="Vector_7" d="M359.799 414.488C363.88 414.488 367.188 411.173 367.188 407.085C367.188 402.996 363.88 399.681 359.799 399.681C355.718 399.681 352.41 402.996 352.41 407.085C352.41 411.173 355.718 414.488 359.799 414.488Z" fill="#6B09C0"/>
<path id="Vector_8" d="M410.273 473.26C414.354 473.26 417.662 469.945 417.662 465.856C417.662 461.768 414.354 458.453 410.273 458.453C406.192 458.453 402.884 461.768 402.884 465.856C402.884 469.945 406.192 473.26 410.273 473.26Z" fill="#6B09C0"/>
<path id="Vector_9" d="M457.678 345.807C461.758 345.807 465.067 342.492 465.067 338.403C465.067 334.315 461.758 331 457.678 331C453.597 331 450.288 334.315 450.288 338.403C450.288 342.492 453.597 345.807 457.678 345.807Z" fill="#6B09C0"/>
<path id="Vector_10" d="M534.254 570C538.334 570 541.643 566.685 541.643 562.597C541.643 558.508 538.334 555.193 534.254 555.193C530.173 555.193 526.864 558.508 526.864 562.597C526.864 566.685 530.173 570 534.254 570Z" fill="#6B09C0"/>
<path id="Vector_11" d="M308.074 544.333C312.155 544.333 315.463 541.018 315.463 536.929C315.463 532.841 312.155 529.526 308.074 529.526C303.993 529.526 300.685 532.841 300.685 536.929C300.685 541.018 303.993 544.333 308.074 544.333Z" fill="#6B09C0"/>
</g>
</g>
<defs>
<filter id="filter0_d" x="65" y="84" width="415" height="765" filterUnits="userSpaceOnUse" color-interpolation-filters="sRGB">
<feFlood flood-opacity="0" result="BackgroundImageFix"/>
<feColorMatrix in="SourceAlpha" type="matrix" values="0 0 0 0 0 0 0 0 0 0 0 0 0 0 0 0 0 0 127 0"/>
<feOffset/>
<feGaussianBlur stdDeviation="10"/>
<feColorMatrix type="matrix" values="0 0 0 0 0 0 0 0 0 0 0 0 0 0 0 0 0 0 0.15 0"/>
<feBlend mode="normal" in2="BackgroundImageFix" result="effect1_dropShadow"/>
<feBlend mode="normal" in="SourceGraphic" in2="effect1_dropShadow" result="shape"/>
</filter>
<linearGradient id="paint0_linear" x1="272.386" y1="551.651" x2="272.084" y2="294.171" gradientUnits="userSpaceOnUse">
<stop stop-color="white" stop-opacity="0"/>
<stop offset="1" stop-color="#BAC6F2"/>
</linearGradient>
</defs>
</svg>
