<svg width="30" height="30" viewBox="0 0 30 30" fill="none" xmlns="http://www.w3.org/2000/svg">
<path d="M15 0C6.72683 0 0 6.72694 0 15C0 23.2732 6.72683 30 15 30C23.2732 30 30 23.2732 30 15C30 6.72694 23.2732 0 15 0ZM15 1.875C22.2598 1.875 28.125 7.74019 28.125 15C28.125 22.2598 22.2598 28.125 15 28.125C7.74016 28.125 1.875 22.2598 1.875 15C1.875 7.74019 7.74016 1.875 15 1.875ZM9.375 9.375C8.72724 9.375 8.07948 9.54212 7.5 9.87671C6.34105 10.5459 5.625 11.7868 5.625 13.125C5.62307 13.2481 5.64542 13.3704 5.69075 13.4849C5.73609 13.5994 5.80353 13.7038 5.88922 13.7922C5.97492 13.8806 6.07719 13.9513 6.1902 14.0002C6.30321 14.0491 6.42474 14.0752 6.54785 14.0771C6.67343 14.0791 6.79813 14.0558 6.91454 14.0087C7.03094 13.9615 7.13669 13.8915 7.2255 13.8026C7.31431 13.7138 7.38437 13.6081 7.43153 13.4917C7.47868 13.3753 7.50197 13.2506 7.5 13.125C7.5 12.4537 7.85607 11.8383 8.4375 11.5027C9.01893 11.1671 9.73107 11.1671 10.3125 11.5027C10.8939 11.8383 11.25 12.4537 11.25 13.125C11.2482 13.2492 11.2712 13.3726 11.3175 13.4879C11.3638 13.6031 11.4326 13.7081 11.5198 13.7965C11.6071 13.885 11.711 13.9553 11.8256 14.0032C11.9403 14.0512 12.0633 14.0759 12.1875 14.0759C12.3117 14.0759 12.4347 14.0512 12.5494 14.0032C12.664 13.9553 12.7679 13.885 12.8552 13.7965C12.9424 13.7081 13.0112 13.6031 13.0575 13.4879C13.1038 13.3726 13.1268 13.2492 13.125 13.125C13.125 11.7868 12.409 10.5459 11.25 9.87671C10.6705 9.54212 10.0228 9.375 9.375 9.375ZM20.625 9.375C19.9772 9.375 19.3295 9.54212 18.75 9.87671C17.591 10.5459 16.875 11.7868 16.875 13.125C16.8731 13.2481 16.8954 13.3704 16.9408 13.4849C16.9861 13.5994 17.0535 13.7038 17.1392 13.7922C17.2249 13.8806 17.3272 13.9513 17.4402 14.0002C17.5532 14.0491 17.6747 14.0752 17.7979 14.0771C17.9234 14.0791 18.0481 14.0558 18.1645 14.0087C18.2809 13.9615 18.3867 13.8915 18.4755 13.8026C18.5643 13.7138 18.6344 13.6081 18.6815 13.4917C18.7287 13.3753 18.752 13.2506 18.75 13.125C18.75 12.4537 19.1061 11.8383 19.6875 11.5027C20.2689 11.1671 20.9811 11.1671 21.5625 11.5027C22.1439 11.8383 22.5 12.4537 22.5 13.125C22.4982 13.2492 22.5212 13.3726 22.5675 13.4879C22.6138 13.6031 22.6826 13.7081 22.7698 13.7965C22.8571 13.885 22.961 13.9553 23.0756 14.0032C23.1903 14.0512 23.3133 14.0759 23.4375 14.0759C23.5617 14.0759 23.6847 14.0512 23.7994 14.0032C23.914 13.9553 24.0179 13.885 24.1052 13.7965C24.1924 13.7081 24.2612 13.6031 24.3075 13.4879C24.3538 13.3726 24.3768 13.2492 24.375 13.125C24.375 11.7868 23.659 10.5459 22.5 9.87671C21.9205 9.54212 21.2728 9.375 20.625 9.375ZM22.2729 18.3398C22.1044 18.3371 21.9382 18.3799 21.7919 18.4637C21.6456 18.5475 21.5246 18.6692 21.4417 18.8159C20.096 21.0944 17.6534 22.4918 15.0073 22.5C12.3613 22.5 9.91453 21.1226 8.55469 18.8525C8.42697 18.6389 8.2196 18.4847 7.9782 18.4239C7.73679 18.3631 7.48113 18.4007 7.26746 18.5284C7.05378 18.6562 6.89959 18.8635 6.83881 19.1049C6.77803 19.3463 6.81564 19.602 6.94336 19.8157C8.64153 22.6503 11.7103 24.3853 15.0146 24.375C18.319 24.3563 21.3762 22.6132 23.0566 19.7681C23.1221 19.6609 23.1653 19.5416 23.1838 19.4174C23.2023 19.2932 23.1956 19.1665 23.1642 19.0449C23.1328 18.9233 23.0772 18.8092 23.0009 18.7095C22.9245 18.6098 22.8289 18.5264 22.7197 18.4644C22.5836 18.3861 22.43 18.3433 22.2729 18.3398Z" fill="black"/>
</svg>
