<svg width="35" height="30" viewBox="0 0 35 30" fill="none" xmlns="http://www.w3.org/2000/svg">
<path d="M26.7649 0.124109C22.2174 -0.670989 18.8013 2.55827 17.2386 4.43017C15.6787 2.55733 12.2558 -0.672876 7.7122 0.124109C3.22614 0.901471 -0.08812 4.95913 0.00178603 9.56236C0.085843 13.8096 2.53576 18.4188 7.2838 23.2618C10.0954 26.1282 13.3365 28.3726 16.9188 29.9335C17.0204 29.9765 17.13 30 17.2386 30C17.3471 30 17.4567 29.9765 17.5584 29.9335C21.1408 28.3726 24.3817 26.1282 27.1933 23.2618C31.9424 18.4179 34.3922 13.8087 34.4763 9.56236C34.5661 4.95913 31.2508 0.901471 26.7649 0.124109ZM26.0489 22.1391C23.467 24.7728 20.5039 26.8509 17.2383 28.3219C13.9728 26.851 11.0096 24.7728 8.42767 22.1391C3.97492 17.5983 1.67868 13.356 1.6034 9.53113C1.52915 5.71215 4.27228 2.34601 7.98569 1.70251C8.36909 1.636 8.74164 1.60563 9.10645 1.60563C12.9665 1.60563 15.7684 5.05979 16.587 6.20206C16.7375 6.41234 16.9802 6.53659 17.2383 6.53659C17.4965 6.53659 17.739 6.41234 17.8887 6.2031C18.7865 4.95328 22.0686 0.933735 26.4909 1.70242C30.2043 2.34591 32.9484 5.71206 32.8721 9.53104C32.7979 13.355 30.5026 17.5973 26.0489 22.1391Z" fill="black"/>
<path d="M10.023 4.23341C7.71499 4.30671 5.97423 5.33266 4.98941 7.20352C4.41724 8.29201 4.17479 9.40494 4.27064 10.511C4.30677 10.9285 4.65592 11.2435 5.06771 11.2435C5.09121 11.2435 5.11366 11.2425 5.13715 11.2405C5.57828 11.2024 5.90489 10.8141 5.86678 10.374C5.79828 9.57796 5.98017 8.76126 6.40753 7.94956C7.11754 6.60097 8.35075 5.88898 10.074 5.83521C10.5159 5.82153 10.8631 5.45087 10.8495 5.00879C10.8347 4.56794 10.5394 4.21784 10.023 4.23341Z" fill="black"/>
</svg>
