<svg width="200" height="200" viewBox="0 0 200 200" fill="none" xmlns="http://www.w3.org/2000/svg">
<rect width="200" height="200" rx="30" fill="url(#paint0_linear)"/>
<path d="M32 101.954C32 96.0337 37.2413 90.5801 44.5406 90.5801C51.8399 90.5801 57.0812 96.0337 57.0812 101.954V154.745C57.0812 160.666 51.8399 166.119 44.5406 166.119C37.2413 166.119 32 160.666 32 154.745V101.954Z" stroke="white" stroke-width="12"/>
<path d="M141.919 43.3738C141.919 37.4536 147.16 32 154.46 32C161.759 32 167 37.4536 167 43.3738V154.745C167 160.665 161.759 166.119 154.46 166.119C147.16 166.119 141.919 160.665 141.919 154.745V43.3738Z" stroke="white" stroke-width="12"/>
<path d="M85.9001 79.0476C85.9001 71.8044 87.8114 67.517 90.0507 65.0899C92.2511 62.705 95.4247 61.3999 99.5002 61.3999C103.576 61.3999 106.749 62.705 108.95 65.0899C111.189 67.517 113.1 71.8044 113.1 79.0476V148.303C113.1 155.546 111.185 160.192 108.819 162.932C106.512 165.603 103.328 167 99.5002 167C95.6722 167 92.4888 165.603 90.1818 162.932C87.8151 160.192 85.9001 155.546 85.9001 148.303V79.0476Z" stroke="white" stroke-width="12"/>
<defs>
<linearGradient id="paint0_linear" x1="198.345" y1="194.952" x2="-19.9763" y2="160.005" gradientUnits="userSpaceOnUse">
<stop stop-color="#A134FF"/>
<stop offset="0.453125" stop-color="#6E71FF"/>
<stop offset="0.973958" stop-color="#2086FD"/>
</linearGradient>
</defs>
</svg>
