<svg width="128" height="149" viewBox="0 0 128 149" fill="none" xmlns="http://www.w3.org/2000/svg">
<g id="mailbox">
<path id="Vector" d="M64.6223 142.877L94.9813 148.741V98.0989H127.998V52.7489C127.998 52.7489 126.405 30.3509 98.7093 26.082C77.5273 22.824 44.7904 25.6801 30.4502 25.9846C24.1376 26.1186 18.6581 28.1404 13.2212 31.0878C9.43244 33.14 0.182434 44.6495 0.182434 49.905V98.0989L63.9716 98.6287L64.6223 142.877Z" fill="url(#paint0_linear)"/>
<path id="Vector_2" opacity="0.1" d="M0.182448 98.0991L55.8832 98.5619V57.0971C55.9046 51.286 54.2878 45.5868 51.2186 40.6549C47.1866 34.2546 40.0469 27.3367 27.9385 27.1174C5.26661 26.6912 0 50.5994 0 50.5994L0.182448 98.0991Z" fill="black"/>
<path id="Vector_3" opacity="0.1" d="M66.4103 98.0259L95.1637 110.193V98.0259H66.4103Z" fill="black"/>
<path id="Vector_4" d="M59.903 0H82.7331V52.5663H78.2388L77.88 14.2195L59.903 14.8284V0Z" fill="url(#paint1_linear)"/>
</g>
<defs>
<linearGradient id="paint0_linear" x1="0.182434" y1="86.6381" x2="127.998" y2="86.6381" gradientUnits="userSpaceOnUse">
<stop stop-color="#E5A4ED"/>
<stop offset="1" stop-color="#7459DE"/>
</linearGradient>
<linearGradient id="paint1_linear" x1="59.903" y1="26.2832" x2="82.7331" y2="26.2832" gradientUnits="userSpaceOnUse">
<stop stop-color="#F8B14B"/>
<stop offset="1" stop-color="#F71D69"/>
</linearGradient>
</defs>
</svg>
