<svg width="60" height="60" viewBox="0 0 60 60" fill="none" xmlns="http://www.w3.org/2000/svg">
<path d="M54.9311 14.2618C53.586 14.2633 52.2965 14.7984 51.3453 15.7495C50.3942 16.7007 49.8592 17.9902 49.8576 19.3353V21.6462C49.8573 21.9289 49.7448 22.2 49.5447 22.3998C49.3447 22.5996 49.0735 22.7118 48.7908 22.7118H48.4117V21.5265C48.4124 19.0859 47.9263 16.6696 46.982 14.4191C46.0377 12.1686 44.6541 10.1289 42.9121 8.41953L44.2031 6.92434C44.3961 6.68679 44.4886 6.38326 44.461 6.07847C44.4334 5.77368 44.2878 5.49173 44.0553 5.29274C43.8227 5.09374 43.5217 4.99345 43.2163 5.01323C42.9109 5.03301 42.6253 5.17131 42.4204 5.39864L41.1447 6.88092C38.264 4.67916 34.7945 3.38228 31.176 3.15468V1.17362C31.176 0.862354 31.0523 0.56384 30.8322 0.343744C30.6121 0.123649 30.3136 0 30.0023 0C29.6911 0 29.3926 0.123649 29.1725 0.343744C28.9524 0.56384 28.8287 0.862354 28.8287 1.17362V3.15468C25.2102 3.38228 21.7407 4.67916 18.86 6.88092L17.5843 5.39864C17.3794 5.17131 17.0938 5.03301 16.7884 5.01323C16.483 4.99345 16.182 5.09374 15.9494 5.29274C15.7169 5.49173 15.5713 5.77368 15.5437 6.07847C15.5161 6.38326 15.6086 6.68679 15.8016 6.92434L17.0926 8.42305C15.351 10.132 13.9676 12.1711 13.0233 14.421C12.0791 16.6709 11.5928 19.0865 11.593 21.5265V22.7118H11.2139C10.9312 22.7118 10.66 22.5996 10.46 22.3998C10.2599 22.2 10.1474 21.9289 10.1471 21.6462V19.3353C10.1471 17.9898 9.61256 16.6993 8.66109 15.7478C7.70961 14.7963 6.41913 14.2618 5.07355 14.2618C3.72796 14.2618 2.43748 14.7963 1.48601 15.7478C0.534533 16.6993 0 17.9898 0 19.3353V21.6462C0.0031062 24.6195 1.18553 27.4701 3.28784 29.5726C5.39015 31.6751 8.24064 32.8579 11.2139 32.8613H11.593V35.9937H10.9264C10.1243 35.9949 9.35547 36.3141 8.78833 36.8812C8.2212 37.4483 7.90203 38.2172 7.90079 39.0192V42.4486C7.90203 43.2505 8.22123 44.0192 8.78841 44.5862C9.35558 45.1531 10.1244 45.472 10.9264 45.473H11.5613L14.7958 56.485C15.0858 57.4555 15.6803 58.307 16.4914 58.9138C17.3025 59.5205 18.2872 59.8503 19.3001 59.8545H40.7046C41.7178 59.8502 42.7027 59.52 43.5139 58.9128C44.325 58.3056 44.9193 57.4536 45.2089 56.4827L48.4434 45.4706H49.8153C50.6172 45.4697 51.3859 45.1507 51.9529 44.5838C52.5199 44.0168 52.8388 43.248 52.8398 42.4462V39.0169C52.8388 38.215 52.5199 37.4461 51.953 36.8789C51.386 36.3118 50.6173 35.9926 49.8153 35.9913H48.407V32.8613H48.7861C51.7589 32.8579 54.6091 31.6755 56.7113 29.5734C58.8136 27.4714 59.9963 24.6214 60 21.6485V19.3353C59.9984 17.991 59.4641 16.7022 58.5139 15.7512C57.5638 14.8002 56.2754 14.2646 54.9311 14.2618ZM42.9603 55.8207C42.8156 56.307 42.5181 56.7338 42.1117 57.0376C41.7054 57.3414 41.2119 57.5061 40.7046 57.5072H19.3001C18.7934 57.5053 18.3007 57.3403 17.8951 57.0365C17.4895 56.7328 17.1924 56.3065 17.048 55.8207L14.0071 45.4706H45.9976L42.9603 55.8207ZM50.496 39.0169V42.4462C50.4957 42.6257 50.4243 42.7978 50.2974 42.9247C50.1704 43.0516 49.9984 43.1231 49.8189 43.1234H10.9264C10.7467 43.1234 10.5743 43.0521 10.4471 42.9251C10.3199 42.7982 10.2483 42.6259 10.248 42.4462V39.0169C10.248 38.837 10.3195 38.6644 10.4467 38.5372C10.5739 38.41 10.7465 38.3386 10.9264 38.3386H49.8153C49.9951 38.3389 50.1673 38.4105 50.2943 38.5376C50.4212 38.6648 50.4925 38.8372 50.4925 39.0169H50.496ZM57.661 21.6474C57.6585 23.9988 56.723 26.2532 55.06 27.9156C53.3969 29.5779 51.1422 30.5125 48.7908 30.514H47.2381C46.9268 30.514 46.6283 30.6377 46.4082 30.8578C46.1881 31.0779 46.0645 31.3764 46.0645 31.6877V35.9937H13.9402V31.6877C13.9402 31.3764 13.8166 31.0779 13.5965 30.8578C13.3764 30.6377 13.0779 30.514 12.7666 30.514H11.2139C8.86329 30.5116 6.60963 29.5768 4.94738 27.9147C3.28513 26.2527 2.35003 23.9992 2.34723 21.6485V19.3353C2.34723 18.6123 2.63447 17.9188 3.14575 17.4075C3.65704 16.8963 4.35048 16.609 5.07355 16.609C5.79661 16.609 6.49006 16.8963 7.00134 17.4075C7.51262 17.9188 7.79986 18.6123 7.79986 19.3353V21.6462C7.8011 22.5512 8.16123 23.4187 8.80125 24.0585C9.44128 24.6983 10.3089 25.0581 11.2139 25.0591H12.7666C13.0779 25.0591 13.3764 24.9354 13.5965 24.7153C13.8166 24.4952 13.9402 24.1967 13.9402 23.8855V21.5265C13.9402 12.6751 21.1451 5.46319 30.0023 5.46319C38.8596 5.46319 46.0645 12.6751 46.0645 21.5265V23.8855C46.0645 24.1967 46.1881 24.4952 46.4082 24.7153C46.6283 24.9354 46.9268 25.0591 47.2381 25.0591H48.7908C49.6958 25.0581 50.5634 24.6983 51.2034 24.0585C51.8435 23.4187 52.2036 22.5512 52.2048 21.6462V19.3353C52.2048 18.9773 52.2754 18.6228 52.4124 18.292C52.5494 17.9613 52.7502 17.6607 53.0034 17.4075C53.2565 17.1544 53.5571 16.9536 53.8878 16.8166C54.2186 16.6795 54.5731 16.609 54.9311 16.609C55.2892 16.609 55.6437 16.6795 55.9745 16.8166C56.3052 16.9536 56.6058 17.1544 56.8589 17.4075C57.1121 17.6607 57.3129 17.9613 57.4499 18.292C57.5869 18.6228 57.6575 18.9773 57.6575 19.3353L57.661 21.6474Z" fill="#313131"/>
<path d="M24.0369 20.1428C23.7256 20.1428 23.4271 20.2665 23.207 20.4866C22.9869 20.7067 22.8632 21.0052 22.8632 21.3164C22.8549 21.546 22.7578 21.7634 22.5924 21.9229C22.4271 22.0823 22.2063 22.1714 21.9766 22.1714C21.7469 22.1714 21.5261 22.0823 21.3607 21.9229C21.1953 21.7634 21.0983 21.546 21.0899 21.3164C21.0899 21.0052 20.9663 20.7067 20.7462 20.4866C20.5261 20.2665 20.2276 20.1428 19.9163 20.1428C19.605 20.1428 19.3065 20.2665 19.0864 20.4866C18.8663 20.7067 18.7427 21.0052 18.7427 21.3164C18.7588 22.1635 19.1066 22.9703 19.7113 23.5636C20.3161 24.1569 21.1294 24.4893 21.9766 24.4893C22.8237 24.4893 23.6371 24.1569 24.2418 23.5636C24.8465 22.9703 25.1943 22.1635 25.2105 21.3164C25.2105 21.1623 25.1801 21.0097 25.1211 20.8673C25.0622 20.7249 24.9757 20.5955 24.8667 20.4866C24.7578 20.3776 24.6284 20.2911 24.486 20.2322C24.3436 20.1732 24.191 20.1428 24.0369 20.1428Z" fill="#313131"/>
<path d="M40.0884 20.1428C39.7771 20.1428 39.4786 20.2665 39.2585 20.4866C39.0384 20.7067 38.9148 21.0052 38.9148 21.3164C38.9064 21.546 38.8094 21.7634 38.644 21.9229C38.4786 22.0823 38.2579 22.1714 38.0281 22.1714C37.7984 22.1714 37.5776 22.0823 37.4123 21.9229C37.2469 21.7634 37.1498 21.546 37.1415 21.3164C37.1415 21.0052 37.0178 20.7067 36.7977 20.4866C36.5776 20.2665 36.2791 20.1428 35.9678 20.1428C35.6566 20.1428 35.3581 20.2665 35.138 20.4866C34.9179 20.7067 34.7942 21.0052 34.7942 21.3164C34.8104 22.1635 35.1582 22.9703 35.7629 23.5636C36.3676 24.1569 37.181 24.4893 38.0281 24.4893C38.8753 24.4893 39.6886 24.1569 40.2934 23.5636C40.8981 22.9703 41.2459 22.1635 41.262 21.3164C41.262 21.0052 41.1384 20.7067 40.9183 20.4866C40.6982 20.2665 40.3997 20.1428 40.0884 20.1428Z" fill="#313131"/>
<path d="M33.9387 24.6929C33.6885 24.6924 33.4447 24.7718 33.2429 24.9196C33.0411 25.0674 32.8917 25.2758 32.8167 25.5145C32.7369 25.7281 32.1395 27.0883 30 27.0883C27.8605 27.0883 27.2655 25.7281 27.1833 25.5145C27.1007 25.2451 26.9239 25.0144 26.6852 24.8646C26.4465 24.7148 26.1619 24.6559 25.8834 24.6986C25.6049 24.7413 25.351 24.8828 25.1682 25.0973C24.9854 25.3117 24.8858 25.5848 24.8877 25.8665C24.8878 25.9935 24.9088 26.1196 24.9499 26.2398C24.991 26.37 26.0214 29.4402 29.9965 29.4402C33.9715 29.4402 35.0043 26.37 35.043 26.2398C35.0842 26.1196 35.1052 25.9935 35.1052 25.8665C35.1052 25.5565 34.9826 25.2591 34.764 25.0392C34.5454 24.8193 34.2487 24.6948 33.9387 24.6929Z" fill="#313131"/>
</svg>
