<svg width="31" height="30" viewBox="0 0 31 30" fill="none" xmlns="http://www.w3.org/2000/svg">
<path d="M29.6604 0.218045C29.3836 -0.0203708 28.9902 -0.0677541 28.6651 0.0980874L0.690642 13.9292C0.277987 14.1256 0.0128809 14.5398 0.00688303 14.9968C-0.0422996 15.4701 0.174824 15.9319 0.570684 16.1964L8.51188 20.6468C8.44081 20.7488 8.40302 20.8706 8.40392 20.9947V29.3918C8.39912 29.7228 8.66393 29.9954 8.99501 29.9999C9.18005 30.0026 9.35578 29.9199 9.47154 29.7753L14.4018 23.8737L20.3997 27.2088C20.7149 27.4184 21.1107 27.4676 21.4676 27.3405C21.8425 27.2121 22.1298 26.9068 22.2353 26.5245L29.9963 1.2017C30.0902 0.836127 29.9582 0.449863 29.6604 0.218045ZM0.89457 15.5966L1.20646 15.0088L27.1413 2.19735L9.42356 19.7352L1.20646 15.1168L0.89457 15.5966ZM9.6035 27.724V21.2346L13.2742 23.2862L9.6035 27.724ZM20.9275 26.1766L10.5152 20.3949L28.1969 2.83312L20.9275 26.1766Z" fill="black"/>
</svg>
