<svg width="28" height="31" viewBox="0 0 28 31" fill="none" xmlns="http://www.w3.org/2000/svg">
<path d="M1 25.9776C1 21.471 2.29808 14.4609 2.94712 12.9587C3.59615 11.4564 4.71485 11.4856 6.19231 11.4565C8.17129 11.4175 7.45819 13.9599 9.43782 13.9599C11.3849 13.9599 9.43782 11.4567 13.332 11.4565C17.2263 11.4563 15.9282 13.9599 17.8753 13.9599C19.8224 13.9599 19.4324 11.4566 21.7692 11.4565C23.0676 11.4564 23.8789 11.4565 24.3654 12.9587C24.8519 14.4609 26.9615 21.9718 26.9615 25.9776C26.9615 29.9835 19.4406 29.9835 13.9808 29.9835C8.52096 29.9835 1 30.4842 1 25.9776Z" stroke="black" stroke-width="1.5"/>
<path d="M18.1806 5.08238L10.1203 7.87456C9.95785 7.93082 9.78842 7.81021 9.78842 7.63834L9.78842 2.05397C9.78842 1.8821 9.95785 1.76148 10.1203 1.81774L18.1806 4.60993C18.4048 4.6876 18.4048 5.00471 18.1806 5.08238Z" stroke="black" stroke-width="1.5"/>
<line x1="9.75952" y1="14" x2="9.75952" y2="2.15385" stroke="black" stroke-width="1.25"/>
</svg>
