<svg width="415" height="765" viewBox="0 0 415 765" fill="none" xmlns="http://www.w3.org/2000/svg">
<g filter="url(#filter0_d)">
<rect x="20" y="20" width="375" height="725" rx="30" fill="#FAFAFA"/>
</g>
<rect x="149" y="726" width="120" height="5" rx="2.5" fill="#E6E3E3"/>
<rect x="56" y="132" width="170" height="15" rx="7.5" fill="#EEEEEE"/>
<rect x="56" y="162" width="80" height="15" rx="7.5" fill="#EEEEEE"/>
<rect x="78" y="217" width="90" height="12" rx="6" fill="#EEEEEE"/>
<rect x="56" y="241" width="299" height="221" rx="10" fill="white"/>
<rect x="57" y="476" width="176" height="146" rx="10" fill="white"/>
<rect x="245" y="476" width="110" height="146" rx="10" fill="white"/>
<circle cx="332.5" cy="85.5" r="25.5" fill="#EEEEEE"/>
<path d="M62.325 74.275V79.025H64.975V81.75H62.325V90H58.825V81.75H57.125V79.025H58.825V74.275H62.325ZM71.5639 81.575C71.8639 80.9917 72.2722 80.4667 72.7889 80C73.3222 79.5333 73.8639 79.175 74.4139 78.925C74.9639 78.6583 75.3972 78.525 75.7139 78.525L75.5389 82.025C75.4389 82.0083 75.2972 82 75.1139 82C74.4139 82 73.7972 82.1833 73.2639 82.55C72.7305 82.9167 72.3222 83.3917 72.0389 83.975C71.7555 84.5417 71.6139 85.125 71.6139 85.725V90H68.1389V79.075H71.2889L71.5639 81.575ZM90.2766 79.075V90H86.7766V88.65C85.7266 89.75 84.5099 90.3 83.1266 90.3C81.5099 90.3 80.1932 89.8167 79.1766 88.85C78.1766 87.8833 77.6766 86.45 77.6766 84.55C77.6766 83.35 77.9182 82.3 78.4016 81.4C78.9016 80.4833 79.5599 79.775 80.3766 79.275C81.1932 78.775 82.0682 78.525 83.0016 78.525C83.9682 78.525 84.7349 78.675 85.3016 78.975C85.8682 79.2583 86.3682 79.6667 86.8016 80.2L87.0266 79.075H90.2766ZM84.1266 87.45C85.3432 87.45 86.2266 86.9 86.7766 85.8V83.125C86.5766 82.5917 86.2266 82.1667 85.7266 81.85C85.2432 81.5333 84.6682 81.375 84.0016 81.375C83.2349 81.375 82.5766 81.6583 82.0266 82.225C81.4932 82.7917 81.2266 83.5083 81.2266 84.375C81.2266 84.9417 81.3599 85.4667 81.6266 85.95C81.8932 86.4167 82.2432 86.7833 82.6766 87.05C83.1266 87.3167 83.6099 87.45 84.1266 87.45ZM103.658 89.025C103.175 89.4083 102.566 89.7167 101.833 89.95C101.116 90.1833 100.408 90.3 99.708 90.3C97.808 90.3 96.2997 89.7917 95.183 88.775C94.083 87.7417 93.533 86.325 93.533 84.525C93.533 83.3583 93.7997 82.3417 94.333 81.475C94.883 80.5917 95.5997 79.925 96.483 79.475C97.3663 79.0083 98.3163 78.775 99.333 78.775C101.15 78.775 102.625 79.2583 103.758 80.225L102.058 82.475C101.341 81.9083 100.541 81.625 99.658 81.625C98.9247 81.625 98.2997 81.9 97.783 82.45C97.283 83 97.033 83.6917 97.033 84.525C97.033 85.3583 97.308 86.0583 97.858 86.625C98.408 87.175 99.1247 87.45 100.008 87.45C100.775 87.45 101.408 87.2417 101.908 86.825L103.658 89.025ZM111.321 85.45L110.346 86.175V90H106.846V70.275H110.346V82.625L115.546 78.8L117.671 80.675L113.796 83.6L118.071 90H113.996L111.321 85.45ZM132.974 79.075V90C132.974 91.0333 132.674 91.9667 132.074 92.8C131.491 93.65 130.691 94.3083 129.674 94.775C128.674 95.2583 127.583 95.5 126.399 95.5C125.499 95.5 124.708 95.3917 124.024 95.175C123.358 94.9583 122.816 94.7167 122.399 94.45C121.999 94.1833 121.516 93.8167 120.949 93.35L122.999 90.95C123.499 91.4167 123.991 91.7833 124.474 92.05C124.974 92.3167 125.599 92.45 126.349 92.45C127.233 92.45 127.974 92.225 128.574 91.775C129.174 91.3417 129.474 90.7333 129.474 89.95V88.4C129.141 88.9667 128.624 89.425 127.924 89.775C127.241 90.125 126.399 90.3 125.399 90.3C124.416 90.3 123.499 90.05 122.649 89.55C121.816 89.0333 121.149 88.3333 120.649 87.45C120.149 86.55 119.899 85.5583 119.899 84.475C119.899 83.375 120.158 82.3667 120.674 81.45C121.208 80.5333 121.899 79.8167 122.749 79.3C123.616 78.7833 124.524 78.525 125.474 78.525C126.374 78.525 127.174 78.6583 127.874 78.925C128.574 79.175 129.108 79.5083 129.474 79.925L129.749 79.075H132.974ZM126.449 87.45C127.849 87.45 128.858 86.9 129.474 85.8V83.125C129.241 82.5917 128.849 82.1667 128.299 81.85C127.766 81.5333 127.149 81.375 126.449 81.375C125.599 81.375 124.883 81.6583 124.299 82.225C123.716 82.7917 123.424 83.5083 123.424 84.375C123.424 85.2417 123.716 85.975 124.299 86.575C124.883 87.1583 125.599 87.45 126.449 87.45ZM140.57 79.075V90H137.07V79.075H140.57ZM136.995 75.2C136.995 74.7 137.186 74.2833 137.57 73.95C137.97 73.6 138.42 73.425 138.92 73.425C139.403 73.425 139.836 73.6 140.22 73.95C140.603 74.2833 140.795 74.7 140.795 75.2C140.795 75.7 140.603 76.1167 140.22 76.45C139.836 76.7833 139.403 76.95 138.92 76.95C138.42 76.95 137.97 76.7833 137.57 76.45C137.186 76.1167 136.995 75.7 136.995 75.2ZM149.199 74.275V79.025H151.849V81.75H149.199V90H145.699V81.75H143.999V79.025H145.699V74.275H149.199Z" fill="#CDCDCD"/>
<circle cx="62" cy="223" r="6" fill="#EEEEEE"/>
<defs>
<filter id="filter0_d" x="0" y="0" width="415" height="765" filterUnits="userSpaceOnUse" color-interpolation-filters="sRGB">
<feFlood flood-opacity="0" result="BackgroundImageFix"/>
<feColorMatrix in="SourceAlpha" type="matrix" values="0 0 0 0 0 0 0 0 0 0 0 0 0 0 0 0 0 0 127 0"/>
<feOffset/>
<feGaussianBlur stdDeviation="10"/>
<feColorMatrix type="matrix" values="0 0 0 0 0 0 0 0 0 0 0 0 0 0 0 0 0 0 0.15 0"/>
<feBlend mode="normal" in2="BackgroundImageFix" result="effect1_dropShadow"/>
<feBlend mode="normal" in="SourceGraphic" in2="effect1_dropShadow" result="shape"/>
</filter>
</defs>
</svg>
