<svg width="27" height="30" viewBox="0 0 27 30" fill="none" xmlns="http://www.w3.org/2000/svg">
<path d="M25.3001 6.73869L13.6515 0.11136C13.3874 -0.0371199 13.0676 -0.0371199 12.8035 0.11136L1.155 6.73869C0.442583 7.14272 0 7.90368 0 8.72317V12.7178C0 18.5528 2.94247 23.9023 7.87084 27.0276L12.004 29.6474C12.3752 29.8829 12.8006 30 13.2261 30C13.6515 30 14.077 29.8829 14.4482 29.6474L18.5814 27.0276C23.5097 23.9023 26.4522 18.5528 26.4522 12.7178V8.72317C26.4551 7.90368 26.0125 7.14272 25.3001 6.73869ZM24.7404 12.7178C24.7404 17.9632 22.0949 22.7716 17.6648 25.5813L13.5316 28.2011C13.346 28.3182 13.1047 28.3182 12.9191 28.2011L8.78599 25.5813C4.35588 22.773 1.71037 17.9646 1.71037 12.7178V8.72317C1.71037 8.51758 1.8203 8.3277 1.99876 8.22634L13.2275 1.84029L24.4534 8.22634C24.6319 8.3277 24.7418 8.51758 24.7418 8.72317V12.7178H24.7404ZM19.1196 11.0246C19.4537 11.3587 19.4537 11.9012 19.1196 12.2367L12.1154 19.2409C11.9483 19.408 11.7285 19.4922 11.51 19.4922C11.2916 19.4922 11.0717 19.408 10.9047 19.2409L7.33546 15.6717C7.00138 15.3376 7.00138 14.7951 7.33546 14.4596C7.66954 14.1241 8.21206 14.1255 8.54757 14.4596L11.5114 17.4235L17.9103 11.0246C18.243 10.6891 18.7855 10.6891 19.1196 11.0246Z" fill="black"/>
</svg>
