<svg width="60" height="76" viewBox="0 0 60 76" fill="none" xmlns="http://www.w3.org/2000/svg">
<path d="M37.8528 35.7177C38.5857 41.234 38.6519 44.8369 37.5858 50.3335C33.9621 69.0011 60.0007 66.1135 60 37.1352C60.0014 15.767 34.782 12.6292 37.8528 35.7177ZM34.6229 16.0064C33.889 21.5221 33.8224 25.125 34.8896 30.6223C38.5122 49.2892 12.474 46.4019 12.474 17.4233C12.474 -3.94459 37.6934 -7.08235 34.6229 16.0064ZM29.9752 18.5681C29.4159 22.0332 29.302 23.6062 30.0518 27.0563C31.2725 34.9173 26.5289 34.8593 24.2627 30.2397C22.2528 26.1416 22.5537 18.2274 24.2492 14.0993C26.915 7.60948 31.2622 10.5841 29.9752 18.5681ZM15.2157 17.4233C15.2157 42.2911 35.0038 45.574 32.2021 31.1375C31.0762 25.3378 31.139 21.4723 31.9136 15.6522C34.5215 -3.95047 15.2157 -0.44986 15.2157 17.4233ZM21.4547 47.8195C23.6941 52.9121 25.509 56.0232 29.2765 60.1614C42.0689 74.214 18.3335 85.3185 3.27692 60.5723C-7.82513 42.3253 12.0807 26.5027 21.4547 47.8195ZM18.8169 52.429C20.1398 55.6794 20.8595 57.0821 23.2924 59.6375C28.4194 65.7144 24.3383 68.1368 20.0028 65.3733C16.1573 62.9211 12.3025 56.006 11.6055 51.5972C10.51 44.6658 15.7678 44.9405 18.8169 52.429ZM5.61837 59.1434C18.5388 80.3792 37.1424 72.87 27.2494 62.0023C23.2745 57.6364 21.3198 54.3027 18.9573 48.9287C10.9993 30.8303 -3.66807 43.8807 5.61837 59.1434ZM42.4992 38.28C43.0598 41.7444 43.1744 43.3171 42.4233 46.7679C41.2021 54.6289 45.9458 54.5708 48.2113 49.9516C50.2215 45.8535 49.9217 37.939 48.2255 33.8112C45.5593 27.3214 41.2125 30.296 42.4992 38.28ZM57.2583 37.1352C57.2597 62.0026 37.4709 65.2855 40.2729 50.8491C41.3985 45.0494 41.3371 41.1835 40.5611 35.3641C37.9536 15.7611 57.26 19.2614 57.2583 37.1352Z" fill="#313131"/>
</svg>
