<svg width="70" height="70" viewBox="0 0 70 70" fill="none" xmlns="http://www.w3.org/2000/svg">
<path d="M60.6143 1.45753C58.671 -0.485843 55.5081 -0.485843 53.5648 1.45753C52.623 2.3994 52.1039 3.65161 52.1039 4.98243C52.1039 6.31325 52.623 7.56546 53.5648 8.50733L53.8155 8.75805L29.8607 32.7139L26.344 29.1973C25.8019 28.6552 24.9238 28.6552 24.3817 29.1973L14.4214 39.1568C10.0377 43.5407 9.91154 50.5771 14.0168 55.1301C13.4638 55.67 13.0106 56.2115 12.6204 56.6837C12.2952 57.0767 11.8507 57.6161 11.7246 57.6838C3.4569 57.6838 0.445763 64.7269 0.00940615 68.451C-0.0366688 68.844 0.0880045 69.2384 0.350903 69.5352C0.613801 69.8306 0.991887 70 1.38759 70H67.9957C68.7628 70 69.3834 69.3793 69.3834 68.6123C69.3834 61.8986 66.3465 55.6795 61.0533 51.5488L57.4283 48.7232C52.0863 42.8118 43.6925 46.3109 39.4387 49.3466C38.8028 49.112 38.2066 48.9386 37.628 48.7912L40.802 45.6171C41.0622 45.3569 41.2086 45.0045 41.2086 44.6359C41.2086 44.2673 41.0622 43.9149 40.802 43.6547L37.2846 40.1374L61.239 16.1819L61.4897 16.4326C62.4315 17.3745 63.6837 17.8935 65.0144 17.8935C66.3452 17.8935 67.5973 17.3745 68.5392 16.4326C69.481 15.4921 70 14.2399 70 12.9077C70 11.5769 69.481 10.3247 68.5392 9.3828L60.6143 1.45753ZM40.5052 52.0123C40.6015 51.9391 50.1187 44.6318 55.4362 50.6598C55.4932 50.7235 55.5555 50.7831 55.6233 50.836L59.3458 53.7375C63.5942 57.0523 66.1744 61.9094 66.5579 67.2245H3.11134C3.83092 64.8123 5.93004 60.4593 11.7246 60.4593C13.1001 60.4593 13.9444 59.4388 14.7602 58.4509C16.3362 56.5441 18.495 53.9313 25.8493 55.4017C27.0812 55.6551 27.9525 54.7539 28.8076 53.8933C30.066 52.6282 31.6633 51.0374 34.6924 51.1338C34.7011 51.1339 34.7094 51.1349 34.718 51.1349C35.9343 51.1773 37.3739 51.483 39.1243 52.202C39.5837 52.3931 40.1123 52.3199 40.5052 52.0123ZM34.1342 48.3605C30.3209 48.4607 28.1754 50.5941 26.8399 51.9364C26.6082 52.1709 26.3074 52.4717 26.1177 52.6262C21.3634 51.7213 18.3291 52.3612 16.2566 53.4749C12.9461 50.0199 12.984 44.5189 16.3836 41.1191L25.3628 32.1408L28.8787 35.6565C28.879 35.6569 28.8791 35.6573 28.8794 35.6576L34.3407 41.1191C34.3415 41.12 34.3427 41.1202 34.3436 41.1211L37.8586 44.6359L34.1342 48.3605ZM35.3222 38.1752L31.8231 34.6762L55.7777 10.7204L59.2767 14.2195L35.3222 38.1752ZM66.5769 14.4703C65.7421 15.3051 64.2867 15.3051 63.4519 14.4703L62.2201 13.2384L56.7589 7.77687L55.527 6.54499C55.1097 6.12758 54.8793 5.57195 54.8793 4.98243C54.8793 4.39291 55.1097 3.83728 55.527 3.41987C55.958 2.99027 56.5231 2.77479 57.0895 2.77479C57.656 2.77479 58.2211 2.99027 58.652 3.41987L66.5769 11.3451C66.9943 11.7625 67.2247 12.3182 67.2247 12.9077C67.2247 13.4986 66.9943 14.0529 66.5769 14.4703Z" fill="#313131"/>
</svg>
