<svg width="35" height="30" viewBox="0 0 35 30" fill="none" xmlns="http://www.w3.org/2000/svg">
<path d="M0.217094 22.8503C0.807392 24.1163 2.40996 24.6581 4.60002 24.6578C4.92622 24.6578 5.2698 24.6415 5.62066 24.6181C8.37644 27.904 12.5072 30 17.1212 30C26.3898 30 33.5193 21.6087 31.9003 12.4023C33.7822 10.4495 34.701 8.58667 34.026 7.12889C33.3876 5.75283 31.556 5.16123 28.6029 5.35215C19.6575 -5.31279 2.11028 1.02489 2.11028 14.9891C2.11028 15.8683 2.20162 16.7251 2.34736 17.5632C-0.195606 20.203 -0.227799 21.8911 0.217094 22.8503ZM19.7852 28.3082C18.9187 28.4821 18.027 28.5727 17.1212 28.5727C13.2953 28.5727 9.84028 26.9768 7.36909 24.423C10.54 23.9434 14.3463 22.753 18.0061 21.1862C19.2476 22.2208 20.388 21.6873 23.0548 21.8325C24.8078 21.8325 24.8048 24.4919 23.0548 24.4919H22.316C20.3838 24.4919 19.0112 26.4628 19.7852 28.3082ZM19.7545 17.7457H21.8852C20.1652 18.6579 19.2436 19.0683 18.4806 19.4139C18.2468 18.5327 18.9168 17.7457 19.7545 17.7457ZM21.1892 27.9375C20.869 27.416 20.9468 26.7524 21.371 26.314C21.9518 25.7512 22.6001 25.9651 23.0548 25.9192C24.5716 25.9192 25.8058 24.6825 25.8058 23.1563C25.8058 21.6394 24.5716 20.4052 23.0548 20.4052H19.7553C21.4819 19.5995 23.1898 18.6989 24.7949 17.7458C24.8914 17.7166 28.1406 18.2137 28.489 15.317C29.2616 14.7505 29.9803 14.1791 30.629 13.6093C31.2797 19.9311 27.401 25.989 21.1892 27.9375ZM32.7311 7.72929C33.0172 8.34715 32.5846 9.4026 31.4948 10.701C31.07 9.28577 30.4369 7.9578 29.636 6.74468C31.305 6.7509 32.437 7.09501 32.7311 7.72929ZM19.1362 1.56392C24.4059 2.34407 29.027 6.29586 30.3392 11.9248C29.7366 12.504 29.0263 13.1134 28.2092 13.7437C26.9063 11.2005 24.3375 12.6117 13.8864 12.238C12.1333 12.238 12.1215 9.57857 13.8864 9.57857H23.0548C24.5716 9.57857 25.8058 8.34189 25.8058 6.80971C25.8058 5.29287 24.5716 4.05863 23.0548 4.05863H19.7545C18.3895 4.05862 17.9121 2.20774 19.1362 1.56392ZM17.3551 1.41286C16.3172 3.30373 17.7219 5.48591 19.7545 5.48591H23.0548C24.8071 5.48591 24.8048 8.15127 23.0548 8.15127H13.8864C12.3661 8.15127 11.1294 9.38551 11.1294 10.9083C11.1294 12.4286 12.3661 13.6653 13.8864 13.6653C25.3779 13.9511 26.533 12.9653 27.032 14.6122C26.2378 15.1735 25.3643 15.7441 24.4126 16.3185H19.7545C18.2377 16.3185 17.0034 17.5527 17.0034 19.0755C17.0034 19.399 17.0696 19.7051 17.1722 19.9938C12.7672 21.8655 9.00929 22.8299 6.26556 23.1198C4.56086 20.8497 3.53757 18.0401 3.53757 14.9891C3.53757 7.49683 9.67001 1.28563 17.3551 1.41286ZM2.73876 19.2635C3.16048 20.6797 3.78484 22.0077 4.58006 23.2159C2.88425 23.2132 1.79844 22.8644 1.51127 22.2482C1.21635 21.612 1.67697 20.5319 2.73876 19.2635Z" fill="black"/>
</svg>
